<svg width="36" height="48" viewBox="0 0 36 48" fill="none" xmlns="http://www.w3.org/2000/svg">
<g clip-path="url(#clip0_2582_106016)">
<path d="M18.2229 0.00756836C11.5583 0.00756836 6.17066 1.15483 3.55298 1.83803C1.7648 2.30484 0.515137 2.86554 0.515137 4.71915V30.6427V30.6521V30.6617C0.5369 32.8174 1.55944 34.8643 3.25107 36.1395L17.1568 46.691L18.2229 47.4993L19.2903 46.691L33.2001 36.1368C34.9081 34.848 35.9306 32.7929 35.9306 30.6439V4.71915C35.9306 2.8669 34.6809 2.30484 32.8914 1.83803C30.2737 1.15483 24.8874 0.00756836 18.2229 0.00756836Z" fill="#262F61"/>
<path d="M25.8346 5.42017C25.9638 5.43786 26.0916 5.45551 26.218 5.47456C26.5961 5.52764 26.9619 5.58481 27.3155 5.64197C27.6718 5.7005 28.0171 5.76043 28.3462 5.82167L19.0449 12.8891V8.04818C20.5095 8.91783 21.4981 8.82931 22.1359 8.42374C22.5003 8.19238 22.7505 7.85622 22.9068 7.53776C24.4938 8.00457 26.2548 7.01929 25.8346 5.42017Z" fill="white"/>
<path d="M8.79296 5.69776C8.8052 5.83385 8.83244 5.96324 8.87051 6.08709C8.87183 6.09253 8.87315 6.09792 8.8745 6.10336C8.87582 6.1088 8.8786 6.11295 8.87996 6.11838C9.28655 7.35549 10.9402 7.99645 12.4632 7.54734C12.7474 8.12438 13.4286 8.63066 14.3791 8.76268C15.0182 8.85114 15.7798 8.76808 16.6229 8.42239V14.7291L10.8015 19.1535C10.8205 19.0134 10.8328 18.8637 10.8328 18.7017V18.6513V18.5615V18.5207C11.4692 18.1274 12.0307 17.3611 12.3122 16.3921C12.4373 15.9621 12.489 15.5362 12.4849 15.1361C12.3679 15.1878 12.2442 15.2231 12.1273 15.2462C11.8186 15.3061 11.5535 15.2885 11.5521 15.2885C12.062 15.249 12.4318 15.0544 12.6725 14.8748C12.7432 14.8149 12.8207 14.7427 12.9023 14.6597C13.4055 14.1452 13.7373 13.5478 13.9345 12.855L14.8919 9.50435C14.3914 9.45808 13.9087 9.69634 13.6394 10.121L13.1771 10.8503L12.7243 11.5676C12.6223 11.739 12.4401 11.8942 12.2334 12.0058C11.9152 11.7568 11.6676 11.5608 11.4718 11.407C11.4419 11.3838 11.4134 11.3607 11.3862 11.3389L11.0843 10.0705L11.5236 9.28664C11.65 9.05936 11.6908 8.79937 11.6486 8.55031C11.6214 8.39789 11.5629 8.24826 11.4732 8.11352C11.4011 8.00737 11.2515 7.98289 11.1427 8.0523L10.0399 8.75721C10.0087 8.72591 9.97878 8.70138 9.9475 8.68233C9.87815 8.63878 9.80737 8.62797 9.73122 8.64022C9.61971 8.65927 9.49601 8.73138 9.35051 8.82937L9.06895 9.0349L8.65015 9.34104L8.32925 9.32886L8.10626 9.3193C7.88868 9.3193 7.80164 9.71123 8.00289 9.99975C8.17015 10.2393 8.30204 10.5496 8.39179 10.9239C8.39311 10.9293 8.39589 10.9348 8.39725 10.9402C8.40269 10.9675 8.40808 10.9946 8.41488 11.0218C8.41895 11.0436 8.42445 11.064 8.42852 11.0858C8.49924 11.4342 8.53598 11.833 8.53598 12.2767C8.53598 13.2674 8.0029 15.3865 7.31618 16.7678C7.28355 16.8277 7.24955 16.8875 7.21691 16.9488L6.7002 17.8103C6.61725 17.9355 6.63629 18.1246 6.7342 18.2607C6.80491 18.3587 6.91779 18.4295 7.06465 18.4295C7.06465 18.4295 7.47936 18.9521 7.6099 19.9578C7.66974 20.4151 7.67111 20.9732 7.54736 21.6264L6.56829 22.3709L5.5293 23.1602L5.53077 6.3592C6.02983 6.24079 6.59685 6.11431 7.22373 5.9891C7.71055 5.89111 8.23543 5.79302 8.79296 5.69776Z" fill="white"/>
<path d="M17.8348 1.34521L18.2549 2.645H19.6202L18.516 3.4479L18.9376 4.74632L17.8348 3.9433L16.7292 4.74632L17.1508 3.4479L16.0466 2.645H17.4119L17.8348 1.34521Z" fill="white"/>
<path d="M3.08926 3.2395L3.5108 4.53928H4.87615L3.77188 5.34219L4.19342 6.64061L3.08926 5.83759L1.98511 6.64061L2.40664 5.34219L1.30249 4.53928H2.66773L3.08926 3.2395Z" fill="white"/>
<path d="M32.267 3.23975L32.6885 4.53953H34.0539L32.9496 5.34243L33.3711 6.64085L32.267 5.83783L31.1628 6.64085L31.5844 5.34243L30.4802 4.53953H31.8455L32.267 3.23975Z" fill="white"/>
<path d="M22.8744 11.72L23.296 13.0183H24.6613L23.557 13.8213L23.9786 15.121L22.8744 14.3181L21.7703 15.121L22.1918 13.8213L21.0876 13.0183H22.4529L22.8744 11.72Z" fill="white"/>
<path d="M3.08926 14.3L3.5108 15.5984H4.87615L3.77188 16.4014L4.19342 17.701L3.08926 16.8981L1.98511 17.6997L2.40664 16.4014L1.30249 15.5984H2.66773L3.08926 14.3Z" fill="white"/>
<path d="M13.339 18.6079L13.7619 19.9076H15.1259L14.0216 20.7106L14.4433 22.0089L13.339 21.2072L12.2349 22.0089L12.6578 20.7106L11.5522 19.9076H12.9175L13.339 18.6079Z" fill="white"/>
<path d="M3.08926 25.9851L3.5108 27.2848H4.87615L3.77188 28.0877L4.19342 29.3861L3.08926 28.5844L1.98511 29.3861L2.40664 28.0877L1.30249 27.2848H2.66773L3.08926 25.9851Z" fill="white"/>
<path d="M30.3543 11.0723V36.4415L25.5017 40.1228V14.7895L25.5022 14.7892L30.3541 11.0725L30.3543 11.0723Z" fill="white"/>
<path d="M20.6492 18.5059L15.7966 22.222V43.7948L18.2291 45.6403L20.6492 43.8042V18.5059Z" fill="white"/>
<path d="M10.9426 25.939L10.9424 25.9392L6.08939 29.6571V36.4303C-1.75062 30.4851 19.1314 46.325 10.9426 40.1126V25.9396L10.9426 25.939Z" fill="white"/>
<path d="M34.4308 27.9383V7.94727L33.328 8.79242L30.3513 11.072V36.4415L32.3979 34.8887C32.7501 34.6206 33.0628 34.3103 33.3307 33.9673C34.0324 33.0718 34.4308 31.9531 34.4308 30.7949V27.9383Z" fill="#CE3524"/>
<path d="M25.4995 14.7891L20.6462 18.5058V43.8046L25.4995 40.1232V14.7891Z" fill="#CE3524"/>
<path d="M10.939 25.9397V40.1126L15.7922 43.7954V22.2229L10.939 25.9397Z" fill="#CE3524"/>
<path d="M6.08678 29.6572L4.27141 31.0481L2.35132 32.5179C2.67768 33.457 3.26105 34.2885 4.05519 34.8901L6.08678 36.4307V29.6572Z" fill="#CE3524"/>
</g>
<defs>
<clipPath id="clip0_2582_106016">
<rect width="35.4156" height="47.4922" fill="white" transform="translate(0.513184 0.00756836)"/>
</clipPath>
</defs>
</svg>
