<svg width="47" height="48" viewBox="0 0 47 48" fill="none" xmlns="http://www.w3.org/2000/svg">
<path d="M0.00683594 24.2239C0.00683594 11.2464 10.5281 0.725098 23.5057 0.725098C36.4832 0.725098 47.0045 11.2464 47.0045 24.2239C47.0045 37.2014 36.4832 47.7251 23.5057 47.7251C10.5281 47.7251 0.00683594 37.2038 0.00683594 24.2239Z" fill="#FFD900"/>
<path d="M1.13672 24.224C1.13672 11.8694 11.1511 1.85498 23.5057 1.85498C35.8603 1.85498 45.8747 11.8694 45.8747 24.224C45.8747 36.5786 35.8603 46.5953 23.5057 46.5953C11.1511 46.5953 1.13672 36.5786 1.13672 24.224Z" fill="#111827"/>
<path d="M2.38086 24.224C2.38086 12.5564 11.841 3.09619 23.5087 3.09619C35.1764 3.09619 44.6366 12.5564 44.6366 24.224C44.6366 35.8941 35.1764 45.3543 23.5087 45.3543C11.841 45.3543 2.38086 35.8941 2.38086 24.224Z" fill="#FFD900"/>
<path fill-rule="evenodd" clip-rule="evenodd" d="M26.9611 42.2266C25.4002 42.2266 24.2656 41.0447 24.2656 39.697C24.2656 39.5004 24.2514 39.4127 24.2609 39.2706H25.7318C26.1581 39.2706 26.0894 39.8485 26.0894 39.8485C26.0894 40.2938 26.5702 40.4952 26.9326 40.5046C27.3732 40.5165 27.7332 40.1115 27.7332 39.6662L27.7261 38.804C27.4443 38.958 26.8853 38.9532 26.8853 38.9532C25.5518 38.9177 24.249 37.7666 24.249 36.343V35.7082C24.249 34.2847 25.4617 33.1667 26.8853 33.1667H26.9445C28.368 33.1667 29.4718 34.3179 29.4718 35.7414V39.6283C29.4741 41.0944 28.4367 42.2124 26.9611 42.2266Z" fill="#111827"/>
<path fill-rule="evenodd" clip-rule="evenodd" d="M26.903 35.0083H26.929C27.3743 35.0083 27.7344 35.3683 27.7344 35.8136V36.3229C27.7344 36.7682 27.3743 37.1282 26.929 37.1282H26.903C26.4577 37.1282 26.0977 36.7682 26.0977 36.3229V35.8136C26.0977 35.3683 26.4577 35.0083 26.903 35.0083Z" fill="#FFD900"/>
<path fill-rule="evenodd" clip-rule="evenodd" d="M10.8414 29.7205V25.5992H13.2431C15.2304 25.5992 15.941 29.2089 13.3568 29.7205H10.8414ZM10.8414 22.4608V18.5265H13.5558C15.3157 18.5265 15.6781 21.9184 13.6624 22.4608H10.8414ZM7.60352 15.2626V32.8044L13.1294 32.8092C17.5871 32.8092 19.8515 27.3993 16.751 24.0643C16.751 24.0643 16.7416 24.0548 16.7416 24.0383C16.7416 24.0217 16.7629 24.0051 16.7629 24.0051C19.3399 21.0941 18.2598 15.9827 13.4682 15.2603H7.60352V15.2626Z" fill="#111827"/>
<path fill-rule="evenodd" clip-rule="evenodd" d="M33.6724 29.7205V25.5992H36.0576C38.0448 25.5992 38.7554 29.2089 36.1713 29.7205H33.6724ZM33.6724 22.4608V18.5265H36.3702C38.1301 18.5265 38.4925 21.9184 36.4768 22.4608H33.6724ZM30.418 15.2626V32.8044L35.9439 32.8092C40.4016 32.8092 42.666 27.3993 39.5655 24.0643C39.5655 24.0643 39.556 24.0548 39.556 24.0383C39.556 24.0217 39.5773 24.0051 39.5773 24.0051C42.1544 21.0941 41.0743 15.9827 36.2826 15.2603H30.418V15.2626Z" fill="#111827"/>
<path fill-rule="evenodd" clip-rule="evenodd" d="M20.0419 33.1821H20.1011C21.5246 33.1821 22.6757 34.3356 22.6757 35.7592V39.6484C22.6757 41.0719 21.5222 42.2254 20.1011 42.2254H20.0419C18.6183 42.2254 17.4648 41.0719 17.4648 39.6484V35.7592C17.4672 34.3356 18.6207 33.1821 20.0419 33.1821Z" fill="#111827"/>
<path fill-rule="evenodd" clip-rule="evenodd" d="M20.0583 35.0308H20.0843C20.5296 35.0308 20.8896 35.3908 20.8896 35.8361V39.6969C20.8896 40.1422 20.5296 40.5022 20.0843 40.5022H20.0583C19.613 40.5022 19.2529 40.1422 19.2529 39.6969V35.8361C19.2529 35.3908 19.6153 35.0308 20.0583 35.0308Z" fill="#FFD900"/>
<path fill-rule="evenodd" clip-rule="evenodd" d="M16.502 6.50146L22.2505 24.2849H24.7376L30.4174 6.50146H26.938L23.4893 18.3705L20.0619 6.50146H16.502Z" fill="#111827"/>
</svg>
