<svg width="48" height="48" viewBox="0 0 48 48" fill="none" xmlns="http://www.w3.org/2000/svg">
<g clip-path="url(#clip0_2582_100170)">
<g clip-path="url(#clip1_2582_100170)">
<path d="M47.3813 23.4106C47.3813 36.3692 36.8846 46.8659 23.926 46.8659C10.9898 46.8659 0.493164 36.3692 0.493164 23.4106C0.493164 10.4744 10.9898 -0.0222168 23.926 -0.0222168C36.8846 -0.0222168 47.3813 10.4744 47.3813 23.4106Z" fill="#DBA111"/>
<path d="M46.5973 23.41C46.5973 35.9434 36.4587 46.0819 23.9254 46.0819C11.4144 46.0819 1.27588 35.9434 1.27588 23.41C1.27588 10.8991 11.4144 0.760498 23.9254 0.760498C36.4587 0.760498 46.5973 10.8991 46.5973 23.41Z" fill="#001489"/>
<path d="M40.0877 23.4099C40.0877 32.3399 32.8587 39.5689 23.9287 39.5689C15.021 39.5689 7.79199 32.3399 7.79199 23.4099C7.79199 14.5022 15.021 7.27319 23.9287 7.27319C32.8587 7.27319 40.0877 14.5022 40.0877 23.4099Z" fill="#DBA111"/>
<path d="M39.5922 23.4111C39.5922 32.0726 32.587 39.0778 23.9255 39.0778C15.2865 39.0778 8.28125 32.0726 8.28125 23.4111C8.28125 14.7721 15.2865 7.76685 23.9255 7.76685C32.587 7.76685 39.5922 14.7721 39.5922 23.4111Z" fill="white"/>
<path d="M10.5177 36.9289C10.6968 37.0856 11.122 37.5108 11.122 37.5108L11.5248 37.0632L10.2939 35.8994L10.1372 36.0785L8.50342 37.7794L9.13008 38.3837C9.13008 38.3837 9.66723 37.8242 9.84628 37.6227C10.0029 37.7794 10.3834 38.1375 10.3834 38.1375L10.8087 37.7123C10.8087 37.7123 10.4282 37.3542 10.2491 37.1975C10.361 37.0856 10.4058 37.0408 10.5177 36.9289Z" fill="#DBA111"/>
<path fill-rule="evenodd" clip-rule="evenodd" d="M13.4758 39.0994C13.4758 39.3903 13.3863 39.6813 13.2073 39.9274C12.9834 40.2408 12.6701 40.4422 12.312 40.5094C11.9763 40.5541 11.6406 40.487 11.372 40.2855C11.0811 40.0841 10.902 39.7932 10.8573 39.4574C10.7901 39.1217 10.8796 38.7413 11.1034 38.4279C11.3273 38.1146 11.6406 37.9132 11.9987 37.846C12.3344 37.8013 12.6701 37.8684 12.9387 38.0698C13.2073 38.2713 13.4087 38.5622 13.4534 38.8979C13.4684 38.9576 13.4758 39.0247 13.4758 39.0994ZM12.4911 39.4127C12.6254 39.2336 12.8939 38.7636 12.603 38.5622C12.312 38.3608 11.9987 38.7189 11.8196 38.9427C11.663 39.1665 11.4168 39.5917 11.7077 39.7932C11.9987 40.017 12.3568 39.5917 12.4911 39.4127Z" fill="#DBA111"/>
<path fill-rule="evenodd" clip-rule="evenodd" d="M15.9143 41.3383C15.7353 41.674 15.4443 41.9202 15.1086 42.0321C14.7953 42.144 14.4596 42.1216 14.1462 41.9649C13.8329 41.8083 13.6091 41.5621 13.5196 41.2264C13.4077 40.8906 13.43 40.5102 13.6091 40.1745C13.9672 39.4806 14.7058 39.2121 15.3772 39.5478C16.0262 39.8611 16.2724 40.6445 15.9143 41.3383ZM15.131 40.9354C15.2653 40.6668 15.31 40.3983 15.2653 40.2416C15.2354 40.167 15.1832 40.1073 15.1086 40.0625C14.7953 39.9059 14.5267 40.3087 14.3924 40.5773C14.3253 40.7116 14.2358 40.9354 14.2358 41.1145C14.2358 41.2487 14.2805 41.3606 14.4148 41.4278C14.4894 41.4725 14.564 41.48 14.6386 41.4502C14.7953 41.4054 14.9743 41.204 15.131 40.9354Z" fill="#DBA111"/>
<path d="M16.7174 40.4875L16.6055 40.8456C16.6055 40.8456 16.9188 40.9351 17.0083 40.9799C16.8964 41.3156 16.3369 42.8599 16.3369 42.8599L17.1426 43.1508C17.1426 43.1508 17.7022 41.6065 17.8141 41.2484C17.9036 41.2932 18.2169 41.4051 18.2169 41.4051L18.4183 40.8456L16.8069 40.2637L16.7174 40.4875Z" fill="#DBA111"/>
<path fill-rule="evenodd" clip-rule="evenodd" d="M20.7745 42.0084C20.7745 42.068 20.767 42.1203 20.7521 42.165C20.7297 42.3441 20.6402 42.4784 20.5059 42.5903C20.5954 42.7096 20.6402 42.8439 20.6402 42.9931C20.6402 43.0528 20.6402 43.1125 20.6402 43.1722C20.573 43.396 20.4611 43.575 20.3045 43.6869C20.1702 43.7765 19.924 43.866 19.5659 43.7765L18.4692 43.5526L18.9392 41.225L19.0064 41.0012L20.0807 41.2474C20.5954 41.3369 20.7745 41.7174 20.7745 42.0084ZM19.7897 42.926C19.7897 42.8588 19.7673 42.7469 19.633 42.7246C19.633 42.7246 19.5659 42.7022 19.5211 42.7022C19.4764 42.8588 19.454 42.9707 19.4316 43.1498C19.4764 43.1498 19.5211 43.1722 19.5211 43.1722C19.6107 43.1871 19.6778 43.1796 19.7226 43.1498C19.745 43.1274 19.7673 43.0603 19.7897 43.0155C19.7897 43.0006 19.7897 42.9707 19.7897 42.926ZM19.633 42.1203C19.6778 42.1203 19.7002 42.1426 19.7002 42.1426C19.8792 42.165 19.9016 42.0755 19.924 42.0084C19.924 41.9785 19.924 41.9561 19.924 41.9412C19.924 41.9114 19.9165 41.889 19.9016 41.8741C19.8792 41.8293 19.8121 41.7846 19.7226 41.7622C19.6778 41.9188 19.6778 41.986 19.633 42.1203Z" fill="#DBA111"/>
<path d="M22.0905 41.6064L20.9043 44.0459L21.5981 44.0907C21.5981 44.0907 21.7772 43.7102 21.8443 43.5535C21.9935 43.5685 22.1353 43.5834 22.2695 43.5983C22.3367 43.755 22.471 44.1578 22.471 44.1578L23.3662 44.225L22.3591 41.114L22.0905 41.6064Z" fill="#DBA111"/>
<path d="M24.7754 43.5538C24.7531 43.1957 24.6859 41.5842 24.6859 41.5842L23.8354 41.629L23.9474 44.2252L25.6707 44.1357L25.6259 43.5314C25.6259 43.5314 25.0216 43.5538 24.7754 43.5538Z" fill="#DBA111"/>
<path d="M27.1282 43.3075C27.0834 42.9494 26.8148 41.3604 26.8148 41.3604L26.591 41.4051L25.9644 41.4946L26.3672 44.0684L28.0682 43.7999L27.9786 43.1732C27.9786 43.1732 27.3744 43.2627 27.1282 43.3075Z" fill="#DBA111"/>
<path d="M32.0521 41.5842C32.0298 41.808 31.8955 41.9871 31.694 42.0766C31.5896 42.1214 31.4852 42.1214 31.3807 42.0766C31.2017 42.0095 31.045 41.8304 30.9555 41.5842C30.8436 41.3156 30.8212 41.0918 30.8883 40.9352C30.948 40.8158 31.0525 40.7263 31.2017 40.6666C31.3583 40.5995 31.4926 40.6666 31.7164 40.7785L31.8955 40.8904L32.2088 40.398L32.0298 40.2637C31.694 40.0399 31.2464 39.9952 30.8883 40.1518C30.5526 40.2861 30.284 40.5323 30.1274 40.868C29.9931 41.2037 29.9931 41.5842 30.1498 41.9423C30.4183 42.6137 31.1793 42.9495 31.8507 42.6809C32.3431 42.5018 32.6117 42.1214 32.6564 41.6066L32.6788 41.3828L32.0521 41.338V41.5842Z" fill="#DBA111"/>
<path d="M34.0427 40.8679C33.8636 40.5545 33.0803 39.1445 33.0803 39.1445L32.8789 39.2564L32.3193 39.5698L33.595 41.8302L35.0946 41.0022L34.8036 40.4426C34.8036 40.4426 34.2665 40.756 34.0427 40.8679Z" fill="#DBA111"/>
<path d="M35.6988 37.3762L35.5198 37.5105L35.2064 37.7567L36.2584 39.1891C36.3031 39.2338 36.3031 39.2786 36.3031 39.3234C36.2807 39.3905 36.2136 39.4576 36.1464 39.5248C36.1017 39.5472 36.0345 39.5696 35.9674 39.5696C35.9077 39.5546 35.863 39.5248 35.8331 39.48L34.7812 38.0476L34.0874 38.5624L35.1169 39.9724C35.2811 40.1813 35.475 40.3007 35.6988 40.3305C35.945 40.3753 36.236 40.2857 36.4822 40.0843C37.0417 39.7038 37.0193 39.1667 36.7955 38.8534L35.6988 37.3762Z" fill="#DBA111"/>
<path fill-rule="evenodd" clip-rule="evenodd" d="M39.1032 37.4207C39.1032 37.5774 39.0361 37.8235 38.7899 38.0697L37.9618 38.8531L36.1489 36.9954L36.9546 36.2121C37.4023 35.7869 37.8946 35.9659 38.0961 36.1897C38.2304 36.3016 38.2975 36.4583 38.2975 36.615C38.5213 36.615 38.7004 36.6821 38.857 36.8612C39.0137 37.0178 39.1032 37.2193 39.1032 37.4207ZM37.1784 36.8164C37.2904 36.9283 37.3351 36.9731 37.447 37.085C37.4694 37.0626 37.4694 37.0402 37.4694 37.0402C37.5365 36.9955 37.5589 36.9283 37.5589 36.9059C37.5589 36.8612 37.5365 36.8164 37.4918 36.794C37.447 36.7269 37.3575 36.6597 37.1784 36.8164ZM37.8499 37.5102C37.9618 37.6221 38.0513 37.7116 38.1632 37.8459C38.208 37.8012 38.2304 37.7788 38.2304 37.7788C38.2975 37.7116 38.3423 37.6445 38.3423 37.5997C38.3423 37.555 38.2975 37.4878 38.2527 37.4654C38.208 37.4207 38.0737 37.2864 37.9394 37.4431C37.9394 37.4431 37.8946 37.4654 37.8499 37.5102Z" fill="#DBA111"/>
<path d="M10.5196 36.6829C10.5867 36.75 11.1015 37.2648 11.1015 37.2648L11.2805 37.0858L10.3181 36.1458L10.2734 36.1905L8.75146 37.7796L9.13194 38.1377C9.13194 38.1377 9.78099 37.4662 9.84813 37.3767C9.91527 37.4438 10.3853 37.9138 10.3853 37.9138L10.5643 37.7348C10.5643 37.7348 10.0943 37.2648 10.0272 37.1977C10.0719 37.1305 10.4524 36.75 10.5196 36.6829Z" fill="white"/>
<path fill-rule="evenodd" clip-rule="evenodd" d="M13.2961 38.9205C13.2961 38.9802 13.2961 39.0398 13.2961 39.0995C13.2961 39.3457 13.229 39.6143 13.0723 39.8381C12.8709 40.1067 12.5799 40.2857 12.289 40.3305C11.998 40.3752 11.7071 40.3081 11.4609 40.1514C11.2147 39.9724 11.058 39.7262 11.0133 39.4352C10.9685 39.1219 11.0356 38.8086 11.2371 38.5176C11.4385 38.249 11.7071 38.07 12.0204 38.0252C12.3114 37.9581 12.6023 38.0476 12.8485 38.2043C13.0723 38.3833 13.2514 38.6295 13.2961 38.9205ZM12.6918 38.4057C12.2666 38.1148 11.8414 38.6071 11.6847 38.8533C11.528 39.0771 11.1923 39.6367 11.6175 39.9276C12.0204 40.241 12.4456 39.7486 12.6247 39.5024C12.7814 39.2786 13.1171 38.719 12.6918 38.4057Z" fill="white"/>
<path fill-rule="evenodd" clip-rule="evenodd" d="M15.7588 41.2485C15.6021 41.5618 15.3559 41.7856 15.065 41.8752C14.7964 41.9647 14.4831 41.9423 14.2145 41.808C13.9683 41.6737 13.7669 41.4499 13.6774 41.1814C13.5878 40.8904 13.6102 40.5547 13.7669 40.2414C14.0578 39.6371 14.7293 39.4133 15.2888 39.6818C15.8707 39.9728 16.0721 40.6442 15.7588 41.2485ZM14.7069 41.629C14.9755 41.5395 15.1769 41.2037 15.2664 41.0023C15.3783 40.8233 15.5126 40.4652 15.4231 40.1966C15.3783 40.0772 15.2962 39.9877 15.1769 39.928C14.7293 39.6818 14.3712 40.2414 14.2593 40.4875C14.125 40.7337 13.8788 41.3604 14.3488 41.5842C14.4682 41.6439 14.5875 41.6588 14.7069 41.629Z" fill="white"/>
<path d="M16.8982 40.5547L16.8311 40.7337C16.8311 40.7337 17.1444 40.8456 17.2339 40.868C17.1892 40.9799 16.5625 42.7704 16.5625 42.7704L17.0549 42.9271C17.0549 42.9271 17.6815 41.1366 17.7039 41.0471C17.7935 41.0695 18.1068 41.1814 18.1068 41.1814L18.1963 40.9352L16.8982 40.4875V40.5547Z" fill="white"/>
<path fill-rule="evenodd" clip-rule="evenodd" d="M20.5903 42.0101C20.5903 42.0548 20.5903 42.0996 20.5903 42.1443C20.5455 42.3458 20.4112 42.4801 20.2098 42.5472C20.3889 42.6591 20.4784 42.8158 20.4784 43.0172C20.4784 43.047 20.4709 43.0918 20.456 43.1515C20.4112 43.3082 20.3217 43.4648 20.1874 43.532C20.0382 43.6364 19.8443 43.6663 19.6055 43.6215L18.6655 43.4201L19.1131 41.2715V41.2043L20.0531 41.4058C20.4784 41.4953 20.5903 41.8086 20.5903 42.0101ZM19.5831 41.5624C19.5608 41.652 19.4489 42.1667 19.4265 42.2562C19.516 42.2786 19.6503 42.301 19.6503 42.301C19.7846 42.3234 20.0084 42.3234 20.0755 42.0548C20.0904 42.0101 20.0979 41.9728 20.0979 41.9429C20.0979 41.8832 20.083 41.8236 20.0531 41.7639C19.9935 41.6893 19.8816 41.637 19.7174 41.6072C19.7174 41.6072 19.6279 41.5848 19.5831 41.5624ZM19.3817 42.5024C19.3593 42.592 19.2251 43.1963 19.2251 43.2858C19.3146 43.3082 19.4712 43.3305 19.4712 43.3305C19.6204 43.3604 19.7324 43.3529 19.807 43.3082C19.8816 43.2634 19.9263 43.1739 19.9412 43.0396C19.9412 43.0396 19.9636 42.9948 19.9636 42.9501C19.9636 42.8158 19.9189 42.6143 19.6503 42.5472C19.6503 42.5472 19.4489 42.5248 19.3817 42.5024Z" fill="white"/>
<path fill-rule="evenodd" clip-rule="evenodd" d="M22.3128 41.5618L23.1185 44.0461L22.5814 44.0013C22.5814 44.0013 22.4247 43.4865 22.4023 43.4194C22.3352 43.4194 21.8204 43.3746 21.7533 43.3746C21.7085 43.4418 21.4847 43.9118 21.4847 43.9118L21.1714 43.8894L22.2457 41.6961L22.3128 41.5618ZM21.8652 43.1284C21.9771 43.1284 22.2233 43.1508 22.3128 43.1732C22.2904 43.0613 22.1785 42.7256 22.1338 42.5689C22.0666 42.7256 21.91 43.0389 21.8652 43.1284Z" fill="white"/>
<path d="M24.617 43.7327C24.617 43.6208 24.5275 41.7632 24.5275 41.7632H24.4827L24.0127 41.7856L24.1022 44.046L25.4898 43.9789L25.4675 43.6879C25.4675 43.7103 24.7065 43.7327 24.617 43.7327Z" fill="white"/>
<path d="M26.9922 43.5089C26.9698 43.397 26.6788 41.5618 26.6788 41.5618H26.6341L26.1641 41.6289L26.5222 43.867L27.8874 43.6432L27.8426 43.3746C27.8426 43.3746 27.0817 43.4865 26.9922 43.5089Z" fill="white"/>
<path d="M32.2058 41.5839C32.2058 41.8749 32.0267 42.1211 31.7582 42.233C31.609 42.2927 31.4598 42.2927 31.3106 42.233C31.0867 42.1434 30.9077 41.942 30.7958 41.6511C30.6615 41.3377 30.6615 41.0692 30.7286 40.8453C30.8033 40.6961 30.9375 40.5842 31.1315 40.5096C31.3777 40.3977 31.6015 40.532 31.8029 40.6439L31.8477 40.6663L31.982 40.4425L31.9372 40.4201C31.6239 40.2187 31.2658 40.1739 30.9525 40.3082C30.6391 40.4201 30.4153 40.6439 30.281 40.9349C30.1691 41.2258 30.1691 41.5615 30.3034 41.8749C30.5272 42.4792 31.1986 42.7701 31.8029 42.5239C32.2207 42.3598 32.4445 42.0539 32.4744 41.6063L32.4967 41.5392L32.2058 41.5168V41.5839Z" fill="white"/>
<path d="M33.9774 41.1141C33.9326 41.0022 33.015 39.3684 33.015 39.3684L32.9702 39.4132L32.5674 39.637L33.664 41.6065L34.8726 40.9351L34.7383 40.6889C34.7383 40.6889 34.0669 41.047 33.9774 41.1141Z" fill="white"/>
<path d="M35.6754 37.6226L35.6306 37.6449L35.4292 37.7792L36.3916 39.0773C36.4512 39.1668 36.4736 39.2564 36.4587 39.3459C36.4363 39.5026 36.302 39.6145 36.2349 39.6592C36.1678 39.704 36.0559 39.7488 35.9439 39.7264C35.8395 39.7114 35.7574 39.6592 35.6978 39.5697L34.7578 38.294L34.3325 38.6073L35.2725 39.8607C35.3919 40.0397 35.5411 40.1441 35.7201 40.174C35.9887 40.2188 36.2573 40.0621 36.3916 39.9502C36.8392 39.6368 36.8392 39.2116 36.6601 38.943L35.6754 37.6226Z" fill="white"/>
<path fill-rule="evenodd" clip-rule="evenodd" d="M38.9226 37.421C38.9226 37.6 38.8331 37.7716 38.654 37.9357L37.9602 38.6296L36.3936 36.9957L37.0874 36.3467C37.4678 35.9662 37.8483 36.1453 37.9826 36.3019C38.0945 36.4138 38.1393 36.5481 38.1393 36.6824C38.1393 36.7272 38.1318 36.7794 38.1169 36.8391C38.3407 36.7496 38.5645 36.7943 38.7436 36.9734C38.8778 37.1077 38.9226 37.2419 38.9226 37.421ZM37.6245 36.6824C37.4604 36.5034 37.2664 36.5108 37.0426 36.7048C37.0426 36.7048 36.9755 36.7719 36.9531 36.8167C36.9978 36.8838 37.3783 37.2643 37.4231 37.3315C37.4902 37.2643 37.6021 37.1748 37.6021 37.1748C37.6469 37.1077 37.7364 37.0181 37.7364 36.9062C37.7364 36.8391 37.6916 36.7496 37.6245 36.6824ZM38.3631 37.891C38.4526 37.7865 38.5048 37.6896 38.5197 37.6C38.5197 37.5105 38.475 37.421 38.3855 37.3315C38.3631 37.3315 38.0945 37.0405 37.8036 37.3091C37.8036 37.3091 37.6693 37.4434 37.6021 37.5105C37.6693 37.5777 38.0945 38.0029 38.1617 38.07C38.2064 38.0253 38.3631 37.891 38.3631 37.891Z" fill="white"/>
<path d="M13.5204 7.9682L12.5804 8.23677L12.6923 8.57249C12.8042 8.97535 12.6923 9.42296 12.3789 9.69154C12.1999 9.85566 11.991 9.93027 11.7523 9.91534C11.4166 9.89296 11.0361 9.66915 10.7228 9.31106C10.3647 8.88582 10.1856 8.50534 10.208 8.14725C10.208 7.90106 10.3423 7.69963 10.5661 7.4982C10.8123 7.27439 11.148 7.27439 11.5732 7.36392L11.9089 7.43106L12.1104 6.51344L11.797 6.4463C11.0808 6.26725 10.3647 6.4463 9.82751 6.89392C8.82037 7.78915 8.73085 9.24392 9.64847 10.2958C10.4766 11.2582 11.9537 11.3701 12.9161 10.542C13.6099 9.93773 13.8561 9.15439 13.6099 8.30392L13.5204 7.9682Z" fill="#DBA111"/>
<path d="M16.0921 3.2234L15.1297 3.67102C15.1297 3.67102 15.6668 4.83483 15.8459 5.2153C15.5773 5.34959 15.3087 5.48387 15.0402 5.59578C14.8387 5.2153 14.3016 4.07387 14.3016 4.07387L13.0259 4.67816L14.973 8.77387L16.2487 8.19197C16.2487 8.19197 15.6445 6.91625 15.443 6.49102C15.734 6.37911 16.0025 6.24483 16.2711 6.11054C16.4725 6.5134 17.0768 7.78911 17.0768 7.78911L18.3302 7.18483L16.4054 3.08911L16.0921 3.2234Z" fill="#DBA111"/>
<path d="M20.4153 5.77433C20.3557 5.461 20.2885 5.15512 20.2139 4.85671C20.6168 4.76719 21.6687 4.56576 21.6687 4.56576L21.4896 3.64814C21.4896 3.64814 20.4377 3.84957 20.0349 3.93909C19.9901 3.64814 19.9453 3.42433 19.8782 3.13338C20.281 3.06623 21.4001 2.84242 21.4001 2.84242L21.221 1.9248L20.8853 1.99195L18.3115 2.50671L19.2068 6.96052L22.1387 6.37861L21.9596 5.46099C21.9596 5.46099 20.8182 5.6848 20.4153 5.77433Z" fill="#DBA111"/>
<path d="M24.5776 1.81266L23.1676 1.79028L23.1452 2.126L23.0557 6.33362L26.0323 6.40076L26.0547 5.416C26.0547 5.416 24.9133 5.39362 24.488 5.37124C24.5104 4.81171 24.5776 1.81266 24.5776 1.81266Z" fill="#DBA111"/>
<path d="M29.1417 4.11888C28.7836 3.85031 28.6717 3.7384 28.7164 3.58174C28.7164 3.51459 28.806 3.2684 29.0745 3.33555C29.2312 3.38031 29.3879 3.44745 29.455 3.80555L29.5221 4.16364L30.4621 3.85031L30.4174 3.55935C30.2831 2.97745 29.8131 2.50745 29.1864 2.35078C28.7612 2.23888 28.3136 2.30602 27.9555 2.50745C27.6198 2.70888 27.396 3.02221 27.3064 3.40269C27.0602 4.32031 27.6869 4.76793 28.1121 5.08126C28.5374 5.37221 28.6493 5.5065 28.5821 5.75269C28.5672 5.82729 28.5225 5.88697 28.4479 5.93174C28.3583 5.99888 28.2464 5.99888 28.1569 5.9765C27.9331 5.93174 27.8436 5.81983 27.7541 5.52888L27.6421 5.19316L26.7021 5.57364L26.7917 5.86459C26.9707 6.4465 27.3736 6.80459 28.0674 6.98364C28.8283 7.16269 29.7683 6.80459 29.9921 5.88697C30.2383 4.92459 29.5893 4.43221 29.1417 4.11888Z" fill="#DBA111"/>
<path d="M32.5003 6.53583C32.8584 6.71488 33.8208 7.20726 33.8208 7.20726L34.246 6.35679C34.246 6.35679 33.2836 5.88679 32.9255 5.70774C33.0598 5.43917 33.1717 5.23774 33.306 4.96917C33.6641 5.17059 34.6936 5.68536 34.6936 5.68536L35.1189 4.85726L32.4555 3.5144L32.2989 3.80536L30.3965 7.56536L33.0822 8.93059L33.5074 8.08012C33.5074 8.08012 32.4555 7.56536 32.0751 7.38631C32.2243 7.10282 32.366 6.81932 32.5003 6.53583Z" fill="#DBA111"/>
<path d="M37.7798 6.96129L33.5498 9.15462L34.3555 9.87081C34.3555 9.87081 35.0493 9.49033 35.2955 9.35605C35.4969 9.51272 35.7655 9.75891 35.9669 9.93795C35.8774 10.2065 35.6089 10.9675 35.6089 10.9675L36.7279 11.9299L38.5408 6.58081L37.7798 6.96129Z" fill="#DBA111"/>
<path d="M13.359 8.25851L12.8666 8.3928L12.889 8.5047C13.0457 8.99708 12.9114 9.53423 12.5085 9.86994C12.2847 10.0639 12.0311 10.1534 11.7476 10.1385C11.3223 10.1161 10.8971 9.86994 10.539 9.46708C10.1361 8.99708 9.93472 8.54946 9.97948 8.14661C9.9944 7.83327 10.1361 7.55724 10.4047 7.31851C10.7628 7.00518 11.2328 7.07232 11.6133 7.13946L11.7252 7.16184L11.8371 6.69184L11.7252 6.66946C11.0985 6.5128 10.4495 6.66946 9.97948 7.07232C9.06186 7.87803 8.97234 9.19851 9.80043 10.1385C10.5614 11.0114 11.9042 11.1233 12.7547 10.3623C13.3814 9.8028 13.6052 9.13137 13.3814 8.37042L13.359 8.25851Z" fill="white"/>
<path d="M16.1808 3.42464L15.4198 3.78274C15.4198 3.78274 16.0689 5.14798 16.1584 5.32703C15.9793 5.39417 15.0841 5.84179 14.9274 5.90893C14.8379 5.72988 14.1889 4.36464 14.1889 4.36464L13.3384 4.7675L15.0841 8.48274L15.9346 8.07988C15.9346 8.07988 15.2408 6.58036 15.1512 6.37893C15.3079 6.31179 16.2255 5.88655 16.3822 5.81941C16.4717 5.99845 17.1655 7.49798 17.1655 7.49798L18.0384 7.09512L16.2927 3.37988L16.1808 3.42464Z" fill="white"/>
<path d="M20.2319 6.04313C20.1871 5.86408 19.9857 4.85694 19.9633 4.67789C20.1423 4.63313 21.3957 4.38694 21.3957 4.38694L21.3062 3.91694C21.3062 3.91694 20.0528 4.16313 19.8514 4.20789C19.829 4.02884 19.65 3.1336 19.6052 2.95456C19.8066 2.93218 21.1271 2.6636 21.1271 2.6636L21.0376 2.1936L18.5757 2.68598L19.3814 6.69218L21.8657 6.19979L21.7762 5.72979C21.7762 5.72979 20.4109 5.99837 20.2319 6.04313Z" fill="white"/>
<path d="M24.3303 2.03752L23.3903 2.01514V2.12704L23.3008 6.11085L25.8074 6.15561V5.64085C25.8074 5.64085 24.4646 5.59609 24.2632 5.59609C24.2632 5.39466 24.3303 2.03752 24.3303 2.03752Z" fill="white"/>
<path d="M29.1212 3.11089C29.4346 3.17804 29.6136 3.37947 29.6807 3.73756L29.7031 3.87185L30.1955 3.71518V3.60328C30.0836 3.11089 29.6584 2.70804 29.1436 2.57375C28.7631 2.46185 28.3827 2.52899 28.0693 2.70804C27.8008 2.8647 27.5993 3.13328 27.5322 3.44661C27.3308 4.22994 27.8455 4.58804 28.2484 4.87899C28.6512 5.19232 28.9198 5.39375 28.8079 5.79661C28.7631 5.97566 28.6512 6.08756 28.5617 6.13232C28.4274 6.22185 28.2484 6.24423 28.1141 6.19947C27.8008 6.13232 27.6441 5.97566 27.5322 5.59518L27.4874 5.48328L26.9727 5.70709L27.0174 5.79661C27.1517 6.28899 27.5322 6.60232 28.1141 6.75899C28.7855 6.91566 29.5912 6.6247 29.7927 5.84137C29.9941 5.01328 29.4569 4.61042 29.0093 4.29709C28.6288 4.00613 28.405 3.82709 28.4946 3.53613C28.5617 3.26756 28.7855 3.02137 29.1212 3.11089Z" fill="white"/>
<path d="M33.1933 4.67811C33.3723 4.76764 34.5809 5.37192 34.5809 5.37192L34.8047 4.94668L32.5666 3.82764L32.4995 3.91716L30.709 7.47573L32.9695 8.61716L33.1933 8.19192C33.1933 8.19192 31.9623 7.56526 31.7833 7.47573C31.8504 7.31906 32.3204 6.40145 32.4099 6.2224C32.589 6.31192 33.7304 6.89383 33.7304 6.89383L33.9318 6.46859C33.9318 6.46859 32.7904 5.88668 32.6337 5.79716C32.7009 5.64049 33.1261 4.83478 33.1933 4.67811Z" fill="white"/>
<path fill-rule="evenodd" clip-rule="evenodd" d="M38.1344 7.05005L36.6125 11.5486L35.8739 10.8772C35.8739 10.8772 36.1872 9.98195 36.232 9.84767C36.1201 9.78052 35.4263 9.17624 35.3368 9.08672C35.2249 9.15386 34.3744 9.5791 34.3744 9.5791L33.9268 9.19862L37.8882 7.16195L38.1344 7.05005ZM36.3663 9.37767C36.4558 9.17624 36.6125 8.66148 36.7244 8.37053C36.4334 8.50481 35.9634 8.751 35.7844 8.86291C35.9187 8.99719 36.232 9.24338 36.3663 9.37767Z" fill="white"/>
<path fill-rule="evenodd" clip-rule="evenodd" d="M33.8181 25.067C34.5567 24.0599 33.2586 23.0751 32.6096 23.5675C31.4905 24.3956 33.8853 25.2237 33.8853 27.3946C33.8853 29.6999 30.1701 29.4313 29.0286 28.0884C29.0286 28.5808 30.2148 31.1546 32.4305 30.1251C29.9015 32.878 31.7815 35.6756 30.4834 35.6756C29.812 35.6756 29.8567 36.3246 29.8567 36.3246C29.8567 36.3246 29.342 36.168 29.3643 35.6532C28.9839 35.6532 28.4467 35.7651 28.4243 36.5037C28.4243 36.5037 27.9767 36.3918 27.9991 35.6532C27.2829 35.6308 26.7234 35.7875 26.7234 36.3918C26.7234 36.3918 26.2758 36.0561 26.3205 35.5189C26.052 35.2056 25.9624 33.7956 28.3124 33.9075C28.9615 33.9522 29.1182 32.2737 28.6705 31.7813C28.3796 31.7589 27.2829 31.7365 26.2758 29.8118C25.7834 29.8118 24.3734 30.3489 24.3734 31.1322C24.3734 32.0051 25.9401 32.2289 25.9401 32.2289C22.7843 32.8332 24.7315 34.9594 22.6501 35.3175C21.822 35.4741 22.0234 36.1903 22.0234 36.1903C22.0234 36.1903 21.2848 35.9441 21.2848 35.3175C20.8148 35.3175 20.3001 35.6084 20.3001 36.3694C20.3001 36.3694 19.7182 36.1903 19.7182 35.3175C18.8453 35.3175 18.5991 35.7203 18.711 36.1903C18.711 36.1903 18.062 35.8994 18.241 35.0713C17.8382 34.0641 18.3753 33.1913 20.5239 33.4375C22.001 33.6389 22.0458 31.3113 22.0458 30.998C19.5615 29.9237 23.1424 26.8127 24.7762 26.2756L23.9929 24.9551C23.9929 24.9551 22.6501 26.5441 21.0834 26.947C20.8372 26.4546 20.0091 26.3875 19.4048 26.6784C19.2034 26.7903 19.0243 26.9246 18.8901 27.1261C18.8901 27.1261 18.6662 27.3722 18.7334 27.7751C18.7185 27.7751 18.7035 27.7751 18.6886 27.7751C18.6588 27.7751 18.6364 27.7751 18.6215 27.7751C18.5469 27.7602 18.4797 27.7378 18.4201 27.708V30.7518H18.711V31.7141H18.2186C18.4872 31.8261 18.6662 32.0499 18.6886 32.3184C18.7334 32.7437 18.3977 33.0794 17.9724 33.1241C17.5472 33.1465 17.1667 32.8556 17.1443 32.4527C17.122 32.117 17.301 31.8261 17.6143 31.7141H17.0772V30.7518H17.3682V27.3051C17.3682 27.3051 17.122 27.0589 17.122 26.4322C17.122 26.4322 17.1891 25.9175 16.831 26.2756C16.831 26.2756 16.3162 26.298 16.7191 25.7832C16.7191 25.7832 16.8534 25.2684 16.5401 25.5146C16.5177 24.3284 16.7862 24.9327 16.7862 24.9327C16.8758 24.7313 17.0548 24.5075 17.3682 24.3284V19.8075C17.2786 19.7851 17.1891 19.7627 17.0772 19.718C16.7415 19.6284 16.6967 19.248 16.7415 19.0241C16.2267 18.4199 16.6072 18.3303 16.7639 18.0394C16.5848 17.8156 16.4729 17.6813 16.5848 17.3456C16.6967 16.9875 16.9429 16.8756 17.3458 16.8084C17.3458 16.8084 17.3532 16.8084 17.3682 16.8084V16.5399C17.3383 16.5399 17.301 16.5399 17.2562 16.5399C17.2562 16.5249 17.2488 16.5175 17.2339 16.5175C17.204 16.5175 17.1742 16.51 17.1443 16.4951C17.1443 16.4951 17.1369 16.4951 17.122 16.4951C17.0623 16.4802 17.0101 16.4578 16.9653 16.428C16.9504 16.428 16.9429 16.428 16.9429 16.428C16.9131 16.428 16.8907 16.4205 16.8758 16.4056C16.8758 16.4056 16.8683 16.4056 16.8534 16.4056C16.8385 16.3907 16.8235 16.3757 16.8086 16.3608C16.8086 16.3608 16.8012 16.3608 16.7862 16.3608C16.7713 16.3608 16.7639 16.3534 16.7639 16.3384C16.7489 16.3384 16.7415 16.3384 16.7415 16.3384C16.7266 16.3235 16.7116 16.3161 16.6967 16.3161C16.7639 16.3161 17.0101 16.2265 17.301 16.0475C16.4729 15.8237 15.8239 15.1299 15.7343 14.2346C15.6448 13.1156 16.5177 12.1308 17.7039 12.0189C18.1962 11.9965 18.6662 12.1084 19.0691 12.3546C19.1139 12.3845 19.1512 12.4068 19.181 12.4218C19.1959 12.4367 19.2034 12.4441 19.2034 12.4441C19.2481 12.474 19.2855 12.5038 19.3153 12.5337C19.3153 12.5337 19.3228 12.5411 19.3377 12.5561C19.3974 12.6008 19.457 12.653 19.5167 12.7127C19.5316 12.7276 19.5466 12.7426 19.5615 12.7575C19.5764 12.7873 19.5913 12.8172 19.6062 12.847C19.6212 12.8619 19.6435 12.8843 19.6734 12.9141C19.6883 12.9291 19.7032 12.9515 19.7182 12.9813C19.7331 13.0111 19.748 13.041 19.7629 13.0708C19.7778 13.0857 19.7928 13.1081 19.8077 13.138C19.8375 13.1827 19.8599 13.2349 19.8748 13.2946C19.8897 13.3095 19.8972 13.3245 19.8972 13.3394C19.927 13.3841 19.942 13.4289 19.942 13.4737C19.9569 13.4886 19.9643 13.5035 19.9643 13.5184C19.9793 13.5632 19.9942 13.608 20.0091 13.6527C20.0091 13.6676 20.0091 13.69 20.0091 13.7199C20.024 13.7795 20.0315 13.8392 20.0315 13.8989C20.0986 14.4361 19.9196 14.9508 19.5839 15.3313C19.181 15.8684 18.7781 16.1818 18.4201 16.3608V16.8084C18.6662 16.898 18.9572 17.0994 19.3153 17.4351C20.1658 18.2408 21.6429 18.3975 22.5605 18.4422C23.1872 17.8156 23.4334 16.8084 23.4334 16.8084C22.7843 16.5846 22.5382 15.667 22.9634 15.2418C22.9634 15.8684 24.7762 15.8908 24.7762 14.5256C24.7762 14.3241 25.112 13.5856 24.4629 13.6975C24.9777 12.6456 25.2462 13.0261 25.582 12.9813C25.1343 12.377 25.8729 12.2203 26.1639 12.2203C26.0743 13.7199 29.8343 13.2946 30.0582 13.3618C30.3491 14.1003 30.752 13.8094 31.0429 14.4137L30.7743 14.8613L30.4834 14.7494L30.5058 15.1075C30.2596 15.3313 30.1253 15.5103 30.0358 15.667C29.9239 15.8237 29.9686 15.6222 29.8567 15.7789C29.8791 15.5999 29.7896 15.8013 29.6777 15.7118C29.6105 15.667 29.4762 15.6446 29.2748 15.6446C28.9167 15.6446 28.7153 15.9356 28.581 16.1818C28.4691 16.3832 28.5586 16.9427 29.521 16.6294C29.3867 17.0322 29.4315 17.4799 29.521 18.1513C29.4315 17.7484 27.6634 16.7413 27.6634 18.6437C27.6634 20.0537 29.2077 20.0984 29.2077 19.3599C30.3939 20.8594 28.581 21.8441 27.8872 21.4413L27.8201 22.2918C29.0062 23.5675 27.7977 27.7751 31.222 27.7751C31.7591 27.7751 32.1396 27.3275 32.1843 26.9694C32.4082 24.9327 30.1701 24.7313 30.1701 22.4932C30.1701 20.4789 32.9677 19.6732 32.9677 18.487C32.9677 17.2784 31.3786 17.4799 31.3786 18.487C30.7296 16.2489 35.1162 15.3984 35.1162 18.487C35.1162 20.3222 32.2962 20.7475 31.6024 22.7394C31.8486 22.4037 32.2067 22.1351 32.632 21.9784C33.6839 21.5756 34.8029 21.9561 35.1386 22.8065C35.452 23.657 34.8701 24.6865 33.8181 25.067ZM22.6277 21.8889C22.4934 21.598 22.3143 21.2622 22.1353 21.2846C21.7772 22.0456 20.0986 22.4932 19.6062 21.5756C20.3672 21.4189 20.3672 20.7251 19.7629 20.3894C19.1586 20.1432 18.6215 20.0537 18.4201 20.0313V24.3061C18.5096 24.3284 18.5991 24.3061 18.711 24.2613C19.472 23.9927 20.0315 23.3661 20.882 22.8737C21.9115 22.2694 22.4039 22.0232 22.6277 21.8889ZM31.1548 16.0475C31.6248 16.0027 32.0053 15.7341 32.0724 15.4208C32.0724 15.4357 32.0724 15.4581 32.0724 15.488C32.1396 16.0922 31.692 16.6294 31.0877 16.6741C30.6401 16.7189 30.2372 16.4951 30.0358 16.1594C30.1029 16.0475 30.1924 15.9132 30.282 15.8013C30.4834 15.9803 30.7967 16.0699 31.1548 16.0475Z" fill="#D1D3D4"/>
<path fill-rule="evenodd" clip-rule="evenodd" d="M16.4044 30.5278C16.6282 30.5278 17.1878 30.3935 17.1878 30.2816V26.2082C16.9192 26.2082 16.6954 26.6335 16.6954 26.6335C16.6954 26.253 16.8521 25.9397 16.9416 25.8501C16.8073 25.7159 16.4268 25.7606 16.4268 25.7606C16.4268 25.7606 16.2925 25.7606 15.9344 26.1187C15.9344 25.7382 16.3597 25.2682 16.4492 25.1787C16.4492 25.1787 16.2925 25.0892 16.0463 25.0892C16.0463 25.0892 15.8001 25.0892 15.4868 25.3354C15.4868 25.022 15.9568 24.4849 16.2701 24.4849C16.2701 24.082 17.434 24.082 17.9487 24.082C19.1797 24.082 23.4321 21.3739 23.4321 21.3739C22.3801 21.3739 21.9549 21.2173 21.9549 21.2173C21.7982 20.9039 21.6416 20.5906 21.4625 20.613C21.1044 21.3739 19.4035 21.8216 18.9335 20.8816C19.3363 21.0159 19.7392 20.8592 19.8287 20.5459C19.9406 20.2325 19.6721 19.8744 19.2692 19.7625C19.2095 19.7327 19.1498 19.7178 19.0901 19.7178C19.0901 19.7178 19.0901 19.7103 19.0901 19.6954C18.4635 19.4492 17.9487 19.382 17.7473 19.3597V23.6344C17.5682 23.612 17.3668 23.5897 17.1878 23.5897V19.6954C17.1878 19.2925 16.8968 19.1135 16.6954 19.1135C16.6059 19.1135 16.5163 19.0911 16.4044 19.0463C16.0687 18.9344 16.024 18.5763 16.0687 18.3525C15.5316 17.7482 15.9344 17.6363 16.0911 17.3678C15.9121 17.1216 15.8002 17.0097 15.9121 16.6516C16.024 16.3159 16.2701 16.2039 16.6506 16.1368C16.6655 16.1368 16.6805 16.1293 16.6954 16.1144C16.7849 16.2263 17.143 16.3382 17.1878 16.3382V15.8235C17.1878 15.8235 16.9192 15.8906 16.6954 15.8682C16.6506 15.8682 16.6133 15.8608 16.5835 15.8459C16.5686 15.8459 16.5611 15.8459 16.5611 15.8459C16.5313 15.8309 16.5014 15.8235 16.4716 15.8235C16.4567 15.8235 16.4492 15.8235 16.4492 15.8235C16.3895 15.8086 16.3298 15.7862 16.2701 15.7563C16.2701 15.7563 16.2627 15.7563 16.2478 15.7563C16.2328 15.7414 16.2179 15.7339 16.203 15.7339C16.1881 15.719 16.1806 15.7116 16.1806 15.7116C16.1657 15.7116 16.1433 15.7041 16.1135 15.6892C16.0986 15.6743 16.0836 15.6668 16.0687 15.6668C16.0538 15.6519 16.0389 15.6444 16.024 15.6444C16.0911 15.6444 16.3373 15.5325 16.6282 15.3759C16.6133 15.3759 16.6059 15.3759 16.6059 15.3759C15.9792 15.0625 15.5316 14.3016 15.5316 13.4063C15.5316 12.4663 16.024 11.6606 16.7178 11.392C16.8222 11.3771 16.9267 11.3622 17.0311 11.3473C17.5235 11.3025 17.9935 11.4368 18.374 11.6606C18.374 11.6606 18.374 11.6681 18.374 11.683C18.4187 11.6979 18.4635 11.7203 18.5082 11.7501C18.5082 11.7651 18.5157 11.7725 18.5306 11.7725C18.5605 11.8024 18.5978 11.8322 18.6425 11.862C18.7171 11.9217 18.7768 11.9814 18.8216 12.0411C18.8365 12.056 18.8514 12.0709 18.8663 12.0859C18.8962 12.1157 18.9186 12.1381 18.9335 12.153C18.9484 12.1828 18.9633 12.2052 18.9782 12.2201C18.9932 12.25 19.0155 12.2798 19.0454 12.3097C19.0603 12.3395 19.0752 12.3693 19.0901 12.3992C19.1051 12.4141 19.12 12.429 19.1349 12.4439C19.1648 12.5036 19.1871 12.5559 19.2021 12.6006C19.217 12.6305 19.2244 12.6528 19.2244 12.6678C19.2394 12.6976 19.2543 12.7349 19.2692 12.7797C19.2841 12.8095 19.2916 12.8319 19.2916 12.8468C19.3065 12.8916 19.314 12.9363 19.314 12.9811C19.3289 12.996 19.3363 13.0109 19.3363 13.0259C19.3513 13.1005 19.3587 13.1676 19.3587 13.2273C19.4035 13.7644 19.2244 14.2568 18.9111 14.6597C18.5082 15.1744 18.1054 15.4878 17.7473 15.6668V16.5397C17.7473 16.5397 18.3292 16.7411 19.0454 17.0544C19.2394 17.1738 19.4408 17.2782 19.6497 17.3678C20.8135 17.972 22.0221 18.912 21.6192 20.0311C22.7606 20.0311 22.6711 18.5539 22.4249 18.3078C22.8054 17.9273 23.544 16.2487 23.544 15.9354C23.544 15.9354 22.0444 15.622 22.2906 14.5701C22.313 14.8163 22.604 14.973 22.9621 14.973C25.3568 14.973 24.5063 11.8844 23.2082 13.1825C23.7454 12.1082 24.5511 12.3544 24.9092 12.3097C25.1554 12.3097 25.5582 12.3097 25.5582 12.3097C25.0435 11.7949 25.8044 10.8325 26.0954 10.8325C25.9835 12.332 29.1392 12.623 29.3854 12.6901C29.6763 13.4287 30.0792 13.1378 30.3478 13.742L30.0792 14.1673L29.8106 14.0778V14.4135C29.3406 14.8835 29.2735 15.1297 29.0721 15.4206C29.0944 15.152 29.1392 14.9506 28.6021 14.9506C28.2216 14.9506 28.0425 15.2416 27.9082 15.4878C27.774 15.7116 27.8635 16.2487 28.8259 15.9578C28.714 16.3382 28.7587 16.7859 28.8259 17.4797C28.7363 17.0544 26.9682 16.0697 26.9682 17.972C26.9682 19.382 28.5125 19.4044 28.5125 18.6659C29.7211 20.1878 27.8859 21.1725 27.1921 20.7473L27.1473 21.6201C27.9306 22.4482 27.6621 24.552 28.3559 25.8949C28.7363 26.902 29.3854 27.663 30.7506 27.663C32.183 27.663 32.2949 26.6111 32.2949 26.3649C32.2949 24.3282 30.1687 23.8359 30.1687 21.9111C30.1687 20.0087 33.0559 19.2254 33.0559 17.8378C33.0559 16.1816 30.7954 16.4501 30.6835 17.7035C30.6835 17.7333 30.6835 17.7706 30.6835 17.8154C30.0568 15.5773 34.4435 14.7044 34.4435 17.793C34.4435 19.6506 31.6011 20.0759 30.9073 22.0678C31.1535 21.732 31.5116 21.4635 31.9592 21.2844C33.0111 20.9039 34.1301 21.262 34.4435 22.1125C34.7792 22.9854 34.1749 23.9925 33.123 24.3954C33.5259 24.2387 33.8168 23.8359 33.8168 23.3659C33.8168 22.7616 33.3244 22.2916 32.7201 22.2916C32.1606 22.2916 31.6906 22.7168 31.6235 23.2763C31.4892 24.0149 33.2125 24.8878 33.2125 26.723C33.2125 29.0059 29.4973 28.7373 28.3335 27.4168C28.3335 27.9092 29.5197 30.483 31.7578 29.4535C29.2287 32.2063 31.1087 35.004 29.8106 35.004C29.1168 35.004 29.184 35.653 29.184 35.653C29.0049 35.4739 28.893 35.0935 29.0049 34.9816H28.6916C28.3111 34.9592 27.774 35.0935 27.7516 35.8097C27.5502 35.6306 27.5278 35.1606 27.7068 34.9816H27.3263C26.6102 34.9368 26.0282 35.1159 26.0282 35.6978C25.894 35.5635 25.7821 35.0263 25.9835 34.8249H25.6254C25.6254 33.7506 26.364 33.5044 28.2216 33.5044C28.2216 33.5044 29.7435 31.5573 28.5349 30.3487C28.2216 30.3487 26.7892 30.4159 26.6549 29.1625C26.3416 29.0954 25.9835 29.0954 25.603 29.1401C25.1106 29.1401 23.6782 29.6773 23.6782 30.4606C23.6782 31.3111 25.2449 31.5573 25.2449 31.5573C22.0892 32.1392 24.0587 34.2878 21.9773 34.6459C21.1492 34.7801 21.3282 35.4963 21.3282 35.4963C21.0821 35.2501 20.903 34.7578 21.0149 34.6459C21.0149 34.6459 20.7911 34.6459 20.6121 34.6459C20.1421 34.6459 19.6273 34.9144 19.6049 35.6754C19.4482 35.5187 19.2468 34.9816 19.6049 34.6235H19.0454C18.1502 34.6235 17.9263 35.0263 18.0159 35.5187C18.0159 35.5187 17.5906 34.8473 18.0606 34.3773H17.5682C17.5682 32.8778 18.6425 33.1463 20.0078 33.1463C20.8806 33.1463 22.1563 32.0497 22.1563 30.2144C22.1563 30.2144 21.3059 29.8787 21.3059 29.0282C21.3059 27.014 26.1625 26.7678 26.1625 25.1116C26.1625 24.4178 25.5806 24.1268 25.1554 24.1268C25.2673 24.2387 25.9163 25.6039 24.1035 25.6039L23.3201 24.2835C23.3201 24.2835 21.9773 25.8501 20.4106 26.2754C20.1644 25.783 19.3363 25.6935 18.7097 26.0068C18.5082 26.0963 18.3292 26.253 18.2173 26.432C18.2173 26.432 17.9711 26.7006 18.0606 27.1035C18.0606 27.1035 17.6354 26.723 17.8144 26.3425C17.7025 26.2754 17.5235 26.2306 17.3444 26.2306C17.2997 26.544 17.4563 26.8797 17.7249 27.014V30.0801H18.0159L18.0382 31.0201L17.5459 31.0425C17.7921 31.132 17.9711 31.3559 18.0159 31.6468C18.0382 32.0497 17.7249 32.4078 17.2997 32.4525C16.8744 32.4749 16.494 32.184 16.4492 31.7587V31.7363C16.5163 31.9154 16.6954 32.0497 16.9192 32.0497C17.1654 32.0497 17.3892 31.8482 17.3892 31.5797C17.3892 31.3111 17.1654 31.1097 16.9192 31.1097C16.8595 31.1097 16.7998 31.1171 16.7401 31.132C16.7998 31.0873 16.8595 31.0574 16.9192 31.0425H16.4044M18.2621 13.4287C18.2621 13.0035 17.904 12.6454 17.4563 12.6454C17.0982 12.6454 16.8073 12.8916 16.6954 13.2049C16.6954 13.2198 16.6954 13.2273 16.6954 13.2273C16.6805 13.287 16.673 13.3541 16.673 13.4287C16.673 13.8763 17.0311 14.2344 17.4563 14.2344C17.4713 14.2344 17.4787 14.2344 17.4787 14.2344C17.5235 14.4135 17.5459 14.6373 17.4787 14.7716C17.904 14.4135 18.2621 13.9435 18.2621 13.4287ZM17.2997 18.5092C17.2997 18.4644 16.8073 18.3525 16.5611 18.3525C16.4492 18.3525 16.4044 18.5092 16.4044 18.5539C16.4044 18.5987 16.4716 18.733 16.5611 18.733C16.8073 18.733 17.2997 18.5763 17.2997 18.5092ZM17.4563 17.8825C17.4563 17.8154 16.7849 17.5692 16.4492 17.5468C16.2925 17.5244 16.2254 17.7259 16.2254 17.793C16.2254 17.8601 16.2701 18.0392 16.4044 18.0616C16.7401 18.0839 17.4563 17.9497 17.4563 17.8825ZM17.5011 17.2111C17.5235 17.1439 16.8521 16.7411 16.494 16.6516C16.3373 16.6068 16.2254 16.8082 16.203 16.8754C16.1806 16.9425 16.203 17.1663 16.3597 17.1887C16.7178 17.3006 17.4787 17.2782 17.5011 17.2111ZM16.7178 13.2049C16.7028 13.2198 16.6954 13.2273 16.6954 13.2273C16.7103 13.2124 16.7178 13.2049 16.7178 13.2049Z" fill="#001489"/>
<path d="M29.3398 15.4651C29.5637 15.8232 29.9665 16.047 30.3918 16.0023C30.996 15.9351 31.4437 15.398 31.3989 14.7937C31.3989 14.7788 31.3914 14.7564 31.3765 14.7266C31.3318 15.0399 30.9513 15.3085 30.4813 15.3532C30.1232 15.398 29.7875 15.2861 29.6084 15.107C29.5189 15.2413 29.4294 15.3532 29.3398 15.4651Z" fill="#FF0000"/>
<path d="M27.8628 13.406L28.2433 13.4284L28.0643 13.697C28.0643 13.697 27.7957 13.7865 27.8628 13.406ZM26.9452 13.406H27.5047C27.5047 13.406 27.4824 13.8536 27.8852 13.8984L27.7957 14.0327C27.7957 14.0327 26.7214 13.7641 26.9452 13.406Z" fill="white"/>
<path fill-rule="evenodd" clip-rule="evenodd" d="M16.3608 17.1885C16.2042 17.1661 16.1818 16.9423 16.2042 16.8751C16.2265 16.808 16.3384 16.6066 16.4951 16.6513C16.8532 16.7408 17.5246 17.1437 17.5022 17.2108C17.4799 17.278 16.7189 17.3004 16.3608 17.1885ZM16.4056 18.0613C16.2713 18.0389 16.2265 17.8599 16.2265 17.7928C16.2265 17.7256 16.2937 17.5242 16.4503 17.5466C16.7861 17.5689 17.4575 17.8151 17.4575 17.8823C17.4351 17.9494 16.7413 18.0837 16.4056 18.0613ZM17.1889 15.8232V16.338C17.1442 16.338 16.7861 16.2261 16.6965 16.1142V15.868C16.9203 15.8904 17.1889 15.8232 17.1889 15.8232ZM17.3008 18.5089C17.3008 18.5761 16.8084 18.7328 16.5622 18.7328C16.4727 18.7328 16.4056 18.5985 16.4056 18.5537C16.4056 18.5089 16.4503 18.3523 16.5622 18.3523C16.8084 18.3523 17.3008 18.4642 17.3008 18.5089ZM16.4503 25.1785C16.3608 25.268 15.9356 25.738 15.9356 26.1185C15.9356 26.1185 15.6446 25.6261 16.0475 25.0889C16.2937 25.0889 16.4503 25.1785 16.4503 25.1785ZM22.1575 30.2142C22.1575 32.0494 20.8818 33.1461 20.0089 33.1461C18.6437 33.1461 17.5694 32.8775 17.5694 34.377C17.1665 33.3923 17.7037 32.497 19.8299 32.7656C21.3294 32.9447 21.3742 30.6394 21.3742 30.3261C18.8899 29.2518 22.4484 26.1408 24.1046 25.6037C25.9175 25.6037 25.2684 24.2385 25.1565 24.1266C25.5818 24.1266 26.1637 24.4175 26.1637 25.1113C26.1637 26.7675 21.307 27.0137 21.307 29.028C21.307 29.8785 22.1575 30.2142 22.1575 30.2142ZM15.0627 13.5628C14.9732 12.5332 15.6894 11.6156 16.7189 11.3918C16.0251 11.6604 15.5327 12.4661 15.5327 13.4061C15.5327 14.3013 15.9803 15.0623 16.607 15.3756C15.7789 15.1294 15.1299 14.4356 15.0627 13.5628ZM22.9632 14.9728C23.478 14.9728 24.1046 14.6594 24.1046 13.8537C24.1046 13.6523 23.8808 13.048 23.2094 13.1823C24.5075 11.8842 25.358 14.9728 22.9632 14.9728ZM19.6508 17.3675C20.4118 17.6585 21.2622 17.7256 21.8889 17.748C22.5156 17.1213 22.7618 16.1366 22.7618 16.1366C22.1127 15.9128 21.8665 14.9951 22.2694 14.5699H22.2918C22.0456 15.6218 23.5451 15.9351 23.5451 15.9351C23.5451 16.2485 22.8065 17.927 22.4261 18.3075C22.6722 18.5537 22.7618 20.0308 21.6203 20.0308C22.0232 18.9118 20.8146 17.9718 19.6508 17.3675ZM16.6965 13.227C16.8084 12.8913 17.0994 12.6451 17.4575 12.6451C17.9051 12.6451 18.2632 13.0032 18.2632 13.4285C18.2632 13.9432 17.9051 14.4132 17.4799 14.7713C17.547 14.637 17.5246 14.4132 17.4799 14.2342C17.4799 14.2342 17.4724 14.2342 17.4575 14.2342C17.0322 14.2342 16.6742 13.8761 16.6742 13.4285C16.6965 13.7194 16.9651 13.9208 17.2561 13.8985C17.547 13.8761 17.7708 13.6299 17.7484 13.3613C17.7261 13.0704 17.4575 12.8689 17.1665 12.8913C16.9427 12.8913 16.7637 13.048 16.6965 13.227ZM24.9103 12.3094C24.4627 11.7051 25.7832 10.8323 26.0965 10.8323C25.8056 10.8323 25.0446 11.7947 25.5594 12.3094C25.5594 12.3094 25.1565 12.3094 24.9103 12.3094ZM16.2713 24.4847C15.958 24.4847 15.488 25.0218 15.488 25.3351C15.488 24.1713 16.1146 24.2385 16.1146 24.2385C16.2042 24.037 16.3608 23.8132 16.6965 23.6566V19.1132C16.898 19.1132 17.1889 19.2923 17.1889 19.6951V23.5894C17.368 23.5894 17.5694 23.6118 17.7484 23.6342C17.8156 23.6342 17.9051 23.6342 18.017 23.5894C18.8003 23.3208 19.3599 22.6942 20.188 22.2018C21.2399 21.5751 21.7099 21.3289 21.9561 21.217C21.9561 21.217 22.3813 21.3737 23.4332 21.3737C23.4332 21.3737 19.1808 24.0818 17.9499 24.0818C17.4351 24.0818 16.2713 24.0818 16.2713 24.4847ZM17.7484 16.1142C17.9946 16.2261 18.2856 16.4051 18.6437 16.7632C18.763 16.8677 18.8973 16.9647 19.0465 17.0542C18.3303 16.7408 17.7484 16.5394 17.7484 16.5394V16.1142ZM19.0913 19.7175C19.151 19.7175 19.2107 19.725 19.2703 19.7399C19.6732 19.8742 19.9418 20.2323 19.8299 20.5456C19.7403 20.8589 19.3375 21.0156 18.9346 20.8813C19.6956 20.7247 19.6956 20.0532 19.0913 19.7175ZM28.2227 33.4818C26.3651 33.4818 25.6265 33.7504 25.6265 34.8247C25.358 34.5337 25.2908 33.1013 27.6408 33.2356C28.2899 33.258 28.4242 31.5794 27.9765 31.087C27.708 31.0647 26.6113 31.0647 25.6042 29.1399C25.9846 29.0728 26.3427 29.0951 26.6561 29.1623C26.7903 30.3932 28.2227 30.3485 28.5361 30.3485C29.7446 31.557 28.2227 33.4818 28.2227 33.4818ZM29.1851 35.6528C29.1851 35.6528 28.6703 35.4961 28.6927 34.9813H29.0061C28.8942 35.0932 29.0061 35.4737 29.1851 35.6528ZM25.6265 34.8247H25.9846C25.7832 35.0261 25.8951 35.5632 26.0294 35.6975C26.0294 35.6975 25.6042 35.3842 25.6265 34.8247ZM30.1699 21.8885C30.1699 23.8356 32.2961 24.328 32.2961 26.3647C32.2961 26.6108 32.1842 27.6628 30.7518 27.6628C29.3865 27.6628 28.7375 26.8794 28.357 25.8947C28.7375 26.5885 29.3642 27.1032 30.528 27.1032C31.0875 27.1032 31.4456 26.6332 31.4903 26.2751C31.7142 24.2385 29.4984 24.037 29.4984 21.7989C29.4984 19.7847 32.2961 19.0013 32.2961 17.7928C32.2961 16.6513 30.7965 16.7856 30.6846 17.7032C30.7965 16.4499 33.057 16.1813 33.057 17.8375C33.057 19.2251 30.1699 20.0085 30.1699 21.8885ZM16.9427 25.8499C16.8532 25.9394 16.6965 26.2528 16.6965 26.6332C16.6965 26.6332 16.428 26.387 16.428 25.7604C16.428 25.7604 16.8084 25.7156 16.9427 25.8499ZM33.818 23.3656C33.818 23.8356 33.527 24.2161 33.1242 24.3951C33.8627 23.3656 32.587 22.4032 31.9156 22.8732C31.7589 23.0075 31.6694 23.1418 31.6246 23.2761C31.6918 22.7166 32.1618 22.2689 32.7213 22.2689C33.3256 22.2689 33.818 22.7613 33.818 23.3656ZM27.7527 35.8094C27.7527 35.8094 27.2827 35.6975 27.3275 34.9813H27.708C27.5289 35.1604 27.5513 35.608 27.7527 35.8094ZM17.3903 31.5794C17.3903 31.848 17.1889 32.0494 16.9203 32.0494C16.6965 32.0494 16.5175 31.9151 16.4503 31.7137C16.4503 31.4899 16.5622 31.2661 16.7413 31.1318C16.801 31.1169 16.8607 31.1094 16.9203 31.1094C17.1889 31.1094 17.3903 31.3108 17.3903 31.5794ZM19.6061 35.6751C19.6061 35.6751 19.0465 35.5185 19.0465 34.6232H19.6061C19.248 34.9813 19.4494 35.5185 19.6061 35.6751ZM17.8156 26.3423C17.6365 26.7004 18.0618 27.1032 18.0618 27.1032C18.0468 27.1032 18.0319 27.1032 18.017 27.1032C17.9872 27.1032 17.9573 27.0958 17.9275 27.0808C17.8678 27.0659 17.8007 27.0435 17.7261 27.0137C17.4575 26.8794 17.3008 26.5437 17.3456 26.2304C17.5246 26.2304 17.7037 26.2751 17.8156 26.3423ZM16.4056 30.5051L16.3832 30.0799H16.6965V26.6332C16.6965 26.6332 16.9203 26.208 17.1889 26.208V30.2813C17.1889 30.3932 16.6294 30.5051 16.4056 30.5051ZM17.5694 34.377H18.0618C17.5918 34.847 18.017 35.5185 18.017 35.5185C18.017 35.5185 17.368 35.2275 17.5694 34.377ZM21.3294 35.4961C21.3294 35.4961 20.6132 35.2723 20.6132 34.6456C20.7922 34.6456 21.0161 34.6456 21.0161 34.6456C20.9042 34.7575 21.0832 35.2499 21.3294 35.4961Z" fill="#6A7AB5"/>
<path d="M7.51866 27.8872L7.49628 27.8201V27.7305C7.45151 27.4396 7.38437 26.8801 6.95913 26.7905C6.83977 26.7607 6.7204 26.7756 6.60104 26.8353C6.63088 26.701 6.63088 26.5817 6.60104 26.4772C6.44437 26.0744 5.88485 26.0744 5.59389 26.0744H5.50437H5.41485C5.1239 26.0072 4.58675 25.9177 4.36294 26.2758C4.30326 26.3802 4.28088 26.4996 4.2958 26.6339C4.19136 26.5593 4.07945 26.522 3.96009 26.522C3.53485 26.5444 3.3558 27.0815 3.26628 27.3501L3.2439 27.4396L3.19913 27.5067C3.06485 27.7753 2.79628 28.2453 3.08723 28.581C3.16183 28.6705 3.26628 28.7302 3.40056 28.7601C3.29612 28.8496 3.22897 28.9466 3.19913 29.051C3.08723 29.4763 3.53485 29.7896 3.75866 29.9463L3.84818 30.0134L3.89294 30.0805C4.09437 30.282 4.47485 30.6848 4.8777 30.5058C4.98215 30.461 5.07167 30.3864 5.14628 30.282C5.19104 30.4013 5.25818 30.4909 5.3477 30.5505C5.72818 30.7967 6.15342 30.461 6.39961 30.282L6.46675 30.2372L6.55628 30.1925C6.80247 30.0805 7.31723 29.8344 7.27247 29.4091C7.25755 29.2898 7.20532 29.1853 7.1158 29.0958C7.25009 29.0809 7.36199 29.0361 7.45151 28.9615C7.78723 28.6929 7.63056 28.1782 7.51866 27.8872Z" fill="white"/>
<path d="M5.64355 28.2444C8.0607 29.6768 7.29975 28.0877 7.25498 27.8639C7.21022 27.6401 7.18784 25.8944 5.64355 28.2444Z" fill="#FF0000"/>
<path d="M5.48159 28.603C4.8773 31.3335 6.13063 30.1473 6.33206 30.013C6.53349 29.9011 8.18968 29.3416 5.48159 28.603Z" fill="#FF0000"/>
<path d="M5.10413 28.5588C2.30651 28.8274 3.82841 29.6555 4.00746 29.8122C4.18651 29.9688 5.21603 31.3565 5.10413 28.5588Z" fill="#FF0000"/>
<path d="M5.01132 28.1777C3.89227 25.6039 3.57894 27.3272 3.48942 27.5286C3.37751 27.7525 2.37037 29.1625 5.01132 28.1777Z" fill="#FF0000"/>
<path d="M44.8968 27.5067L44.852 27.4396L44.8296 27.3501C44.7401 27.0815 44.5834 26.5444 44.1358 26.522C44.0314 26.522 43.9195 26.5593 43.8001 26.6339C43.815 26.4996 43.7926 26.3802 43.7329 26.2758C43.5091 25.9177 42.972 26.0072 42.681 26.0744H42.5915H42.502C42.211 26.0744 41.6515 26.0744 41.5172 26.4772C41.4725 26.5817 41.465 26.701 41.4949 26.8353C41.3755 26.7756 41.2561 26.7607 41.1368 26.7905C40.7339 26.8801 40.6444 27.4396 40.622 27.7305L40.5996 27.8201L40.5772 27.8872C40.4877 28.1782 40.3087 28.6929 40.6444 28.9615C40.7339 29.0361 40.8458 29.0809 40.9801 29.0958C40.8906 29.1853 40.8383 29.2898 40.8234 29.4091C40.801 29.8344 41.2934 30.0805 41.562 30.1925L41.6291 30.2372L41.6963 30.282C41.9425 30.461 42.3901 30.7967 42.7482 30.5505C42.8377 30.4909 42.9049 30.4013 42.9496 30.282C43.0242 30.3864 43.1137 30.461 43.2182 30.5058C43.621 30.6848 44.0015 30.282 44.2029 30.0805L44.2701 30.0134L44.3372 29.9463C44.561 29.7896 45.0087 29.4763 44.8968 29.051C44.8669 28.9466 44.8072 28.8496 44.7177 28.7601C44.8371 28.7302 44.9341 28.6705 45.0087 28.581C45.2996 28.2453 45.031 27.7753 44.8968 27.5067Z" fill="white"/>
<path d="M42.7468 27.9765C40.6654 26.1412 42.3664 26.3426 42.6126 26.3203C42.8588 26.3203 44.5149 25.7831 42.7468 27.9765Z" fill="#FF0000"/>
<path d="M42.457 28.2444C40.0622 29.6768 40.8008 28.0877 40.8456 27.8639C40.8903 27.6401 40.9127 25.8944 42.457 28.2444Z" fill="#FF0000"/>
<path d="M42.6191 28.603C43.2234 31.3335 41.9701 30.1473 41.7686 30.013C41.5672 29.9011 39.911 29.3416 42.6191 28.603Z" fill="#FF0000"/>
<path d="M42.9924 28.5588C45.79 28.8274 44.2681 29.6555 44.089 29.8122C43.91 29.9688 42.8805 31.3565 42.9924 28.5588Z" fill="#FF0000"/>
<path d="M43.0835 28.1777C44.2025 25.6039 44.5383 27.3272 44.6278 27.5286C44.7173 27.7525 45.7244 29.1625 43.0835 28.1777Z" fill="#FF0000"/>
<path d="M43.644 28.2677C43.6291 28.2378 43.6216 28.2154 43.6216 28.2005C43.8454 28.0438 44.0916 27.8648 44.0916 27.8648L44.0693 27.7977C44.0693 27.7977 43.7783 27.8648 43.5097 27.9096C43.3754 27.6858 43.1516 27.5291 42.8831 27.5067C42.7935 27.2605 42.704 26.9919 42.704 26.9919H42.6593C42.6593 26.9919 42.6145 27.2605 42.5697 27.5291C42.4131 27.5738 42.2564 27.6634 42.1445 27.7977C42.0997 27.8723 42.055 27.9543 42.0102 28.0438C41.7416 28.0438 41.4507 28.0438 41.4507 28.0438V28.0886C41.4507 28.0886 41.7193 28.2229 41.9654 28.3348C41.9654 28.3646 41.9654 28.387 41.9654 28.4019C41.9878 28.6258 42.0774 28.8272 42.2564 28.9615C42.1669 29.2524 42.055 29.5434 42.055 29.5434L42.1221 29.5881C42.1221 29.5881 42.3459 29.3419 42.5473 29.1405C42.6518 29.1704 42.7562 29.1853 42.8607 29.1853C42.98 29.1704 43.092 29.1331 43.1964 29.0734C43.4202 29.2524 43.6888 29.4315 43.6888 29.4315L43.7335 29.4091C43.7335 29.4091 43.5769 29.1181 43.4426 28.8719C43.5993 28.6929 43.644 28.4915 43.644 28.2677Z" fill="white"/>
<path d="M42.7518 27.8423C42.6175 27.8647 42.5056 27.9094 42.4161 28.0213C42.3266 28.1108 42.3042 28.2451 42.3042 28.3794C42.3266 28.648 42.5728 28.8494 42.8413 28.827C42.9756 28.827 43.0875 28.7599 43.1771 28.648C43.2666 28.5585 43.3113 28.4242 43.289 28.2899C43.2666 28.0213 43.0204 27.8199 42.7518 27.8423Z" fill="#FF0000"/>
<path d="M5.34899 27.9765C7.4528 26.1412 5.72947 26.3426 5.48328 26.3203C5.25947 26.3203 3.60328 25.7831 5.34899 27.9765Z" fill="#FF0000"/>
<path d="M6.13352 28.3348C6.37971 28.2229 6.64828 28.0886 6.64828 28.0886V28.0438C6.64828 28.0438 6.35732 28.0438 6.08875 28.0438C6.05891 27.9543 6.01415 27.8723 5.95447 27.7977C5.84256 27.6634 5.6859 27.5738 5.52923 27.5291C5.48447 27.2605 5.46209 26.9919 5.46209 26.9919H5.39494C5.39494 26.9919 5.30542 27.2605 5.2159 27.5067C4.96971 27.5291 4.72351 27.6858 4.58923 27.9096C4.32066 27.8648 4.02971 27.7977 4.02971 27.7977L4.00732 27.8648C4.00732 27.8648 4.25351 28.0438 4.47732 28.2005C4.47732 28.2154 4.47732 28.2378 4.47732 28.2677C4.45494 28.4915 4.52209 28.6929 4.65637 28.8719C4.52209 29.1181 4.36542 29.4091 4.36542 29.4091L4.41018 29.4315C4.41018 29.4315 4.67875 29.2524 4.90256 29.0734C5.00701 29.1331 5.11891 29.1704 5.23828 29.1853C5.34272 29.1853 5.45463 29.1704 5.57399 29.1405C5.77542 29.3419 5.99923 29.5881 5.99923 29.5881L6.04399 29.5434C6.04399 29.5434 5.93209 29.2524 5.86494 28.9615C6.02161 28.8272 6.11113 28.6258 6.13352 28.4019C6.13352 28.387 6.13352 28.3646 6.13352 28.3348Z" fill="white"/>
<path d="M5.68471 28.0213C5.59519 27.9094 5.48328 27.8647 5.349 27.8423C5.08043 27.8199 4.83424 28.0213 4.81186 28.2899C4.78947 28.4242 4.83424 28.5585 4.92376 28.648C5.01328 28.7599 5.12519 28.827 5.25947 28.827C5.52805 28.8494 5.77424 28.648 5.79662 28.3794C5.819 28.2451 5.77424 28.1332 5.68471 28.0213Z" fill="#FF0000"/>
<path d="M5.64369 16.3162C4.47988 16.1148 3.36083 16.8981 3.13702 18.0843C2.93559 19.2481 3.71893 20.3672 4.90512 20.591C6.06893 20.7924 7.21036 20.0091 7.41178 18.8229C7.61321 17.6591 6.82988 16.5177 5.64369 16.3162Z" fill="white"/>
<path d="M6.13093 17.9494C6.11601 17.9344 6.08617 17.9195 6.04141 17.9046C5.86236 17.7703 5.52664 17.5465 5.50426 17.5465C5.4595 17.5017 5.41474 17.4644 5.36998 17.4346C5.22077 17.3302 5.07903 17.2406 4.94474 17.166C4.89998 17.1362 4.84776 17.1138 4.78807 17.0989C4.58664 16.987 4.38522 16.9198 4.16141 16.8975C3.98236 17.0317 3.82569 17.1959 3.69141 17.3898C4.22855 17.5913 4.76569 17.8822 5.86236 18.576C5.90712 18.4194 6.13093 17.9717 6.13093 17.9494Z" fill="#FF0000"/>
<path d="M5.64003 19.113C5.66241 19.0682 5.75194 18.822 5.7967 18.7325C4.67765 18.0163 4.14051 17.7254 3.60336 17.5239C3.52876 17.6731 3.46908 17.8373 3.42432 18.0163C3.73765 18.4415 4.56574 18.8444 5.64003 19.113Z" fill="#FF0000"/>
<path d="M5.50483 17.3457C5.93007 17.0995 6.40007 17.1667 6.78054 17.3009C6.64626 17.107 6.48213 16.9503 6.28816 16.8309C5.93007 16.7638 5.46007 16.7638 5.07959 17.0547C5.21388 17.1443 5.35562 17.2413 5.50483 17.3457Z" fill="#FF0000"/>
<path d="M3.82919 19.3594C3.88887 19.3893 3.94856 19.4266 4.00824 19.4714C4.14252 19.531 4.27681 19.5907 4.4111 19.6504C4.47078 19.6653 4.53046 19.6802 4.59014 19.6952C4.79157 19.7623 5.28395 19.8966 5.32871 19.8966C5.32871 19.8966 5.50776 19.449 5.57491 19.2699C4.74681 19.0685 3.82919 18.688 3.38157 18.218C3.36665 18.4418 3.38157 18.6582 3.42633 18.8671C3.51586 19.0685 3.65014 19.2252 3.82919 19.3594Z" fill="#FF0000"/>
<path d="M5.34859 20.076L5.16955 20.0313C5.00542 19.9865 4.83383 19.9417 4.65479 19.897C4.74431 20.076 4.87859 20.2327 5.03526 20.3446C5.22923 20.3595 5.41574 20.3521 5.59478 20.3222C5.4605 20.2103 5.34859 20.076 5.34859 20.076Z" fill="#FF0000"/>
<path d="M7.09547 17.9047C7.0507 17.7704 6.99848 17.6436 6.9388 17.5242C6.60309 17.3675 6.1107 17.2333 5.66309 17.4571L6.26737 17.8375C6.40166 17.8375 6.52102 17.8375 6.62547 17.8375C6.68515 17.8375 6.73737 17.8375 6.78213 17.8375C6.9015 17.8525 7.00594 17.8748 7.09547 17.9047Z" fill="#FF0000"/>
<path d="M6.78342 18.0166C6.76104 19.0014 6.29104 19.7623 5.88818 20.2547C6.53723 20.0309 7.02961 19.4937 7.14152 18.7776C7.18628 18.5314 7.18628 18.3076 7.14152 18.0837C7.03707 18.0539 6.91771 18.0315 6.78342 18.0166Z" fill="#FF0000"/>
<path d="M4.92427 16.9871C5.21522 16.7185 5.52856 16.6514 5.84189 16.629C5.76729 16.6141 5.68522 16.5992 5.5957 16.5843C5.17046 16.4947 4.74522 16.5843 4.36475 16.7857C4.56617 16.8081 4.74522 16.8752 4.92427 16.9871Z" fill="#FF0000"/>
<path d="M6.2944 18.0173C6.16012 18.3082 6.07059 18.4873 6.00345 18.6663C5.97361 18.7111 5.95123 18.7558 5.93631 18.8006C5.91393 18.8901 5.80202 19.1587 5.80202 19.1587L5.73488 19.3153L5.46631 19.9644C5.55583 20.0763 5.64536 20.1434 5.7125 20.2106C6.11536 19.763 6.60774 19.002 6.63012 17.9949C6.52567 17.9949 6.41377 18.0023 6.2944 18.0173Z" fill="#FF0000"/>
<path d="M4.45518 19.8298C4.3209 19.785 4.19407 19.7328 4.07471 19.6731C4.11947 19.8074 4.18661 19.9417 4.25375 20.0536C4.38804 20.1431 4.54471 20.2177 4.72375 20.2774C4.61185 20.1431 4.49995 20.0088 4.45518 19.8298Z" fill="#FF0000"/>
<path d="M3.87013 19.5614C3.78061 19.5017 3.69109 19.442 3.60156 19.3823C3.69109 19.5465 3.80299 19.6882 3.93728 19.8076C3.90744 19.733 3.88505 19.6509 3.87013 19.5614Z" fill="#FF0000"/>
<path d="M40.4671 18.8229C40.6685 20.0091 41.7876 20.7924 42.9738 20.591C44.1376 20.3672 44.9433 19.2481 44.7195 18.0843C44.518 16.8981 43.399 16.1148 42.2128 16.3162C41.049 16.5177 40.2433 17.6591 40.4671 18.8229Z" fill="white"/>
<path d="M41.7212 17.9494C41.751 17.9344 41.7883 17.9195 41.8331 17.9046C41.9898 17.7703 42.3479 17.5465 42.3479 17.5465C42.4075 17.5017 42.4598 17.4644 42.5045 17.4346C42.6537 17.3302 42.7955 17.2406 42.9298 17.166C42.9745 17.1362 43.0193 17.1138 43.064 17.0989C43.2655 16.987 43.4669 16.9198 43.7131 16.8975C43.8921 17.0317 44.0488 17.1959 44.1831 17.3898C43.6236 17.5913 43.1088 17.8822 42.0121 18.576C41.945 18.4194 41.7436 17.9717 41.7212 17.9494Z" fill="#FF0000"/>
<path d="M42.2323 19.1137C42.21 19.0689 42.1204 18.8228 42.0757 18.7332C43.1947 18.017 43.7095 17.7261 44.2466 17.5247C44.3362 17.6739 44.4033 17.838 44.4481 18.017C44.1347 18.4423 43.3066 18.8451 42.2323 19.1137Z" fill="#FF0000"/>
<path d="M42.3432 17.3457C41.9403 17.0995 41.4479 17.1667 41.0898 17.3009C41.2241 17.107 41.3883 16.9503 41.5822 16.8309C41.9403 16.7638 42.4103 16.7638 42.7908 17.0547C42.6565 17.1443 42.5073 17.2413 42.3432 17.3457Z" fill="#FF0000"/>
<path d="M44.0275 19.3594C43.9828 19.3893 43.9231 19.4266 43.8485 19.4714C43.7291 19.531 43.6023 19.5907 43.468 19.6504C43.4083 19.6653 43.3486 19.6802 43.289 19.6952C43.0652 19.7623 42.5951 19.8966 42.5504 19.8966C42.5504 19.8966 42.3713 19.449 42.3042 19.2699C43.1323 19.0685 44.0499 18.688 44.4752 18.218C44.505 18.4418 44.4975 18.6582 44.4528 18.8671C44.3632 19.0685 44.2066 19.2252 44.0275 19.3594Z" fill="#FF0000"/>
<path d="M42.5216 20.075L42.7006 20.0303C42.8648 19.9855 43.0363 19.9408 43.2154 19.896C43.1259 20.075 42.9916 20.2317 42.8349 20.3436C42.6409 20.3585 42.4544 20.3511 42.2754 20.3212C42.4097 20.2093 42.5216 20.075 42.5216 20.075Z" fill="#FF0000"/>
<path d="M40.7773 17.9047C40.8072 17.7704 40.8594 17.6436 40.934 17.5242C41.2697 17.3675 41.7621 17.2333 42.2097 17.4571L41.6054 17.8375C41.4712 17.8375 41.3518 17.8375 41.2473 17.8375C41.1877 17.8375 41.1354 17.8375 41.0907 17.8375C40.9713 17.8525 40.8669 17.8748 40.7773 17.9047Z" fill="#FF0000"/>
<path d="M41.0922 18.0166C41.0922 19.0014 41.5622 19.7623 41.9651 20.2547C41.3384 20.0309 40.846 19.4937 40.7118 18.7776C40.6819 18.5388 40.6894 18.3076 40.7341 18.0837C40.8237 18.0539 40.943 18.0315 41.0922 18.0166Z" fill="#FF0000"/>
<path d="M42.9479 16.9871C42.6569 16.7185 42.3212 16.6514 42.0303 16.629C42.1049 16.6141 42.1795 16.5992 42.2541 16.5843C42.7017 16.4947 43.1269 16.5843 43.485 16.7857C43.306 16.8081 43.1269 16.8752 42.9479 16.9871Z" fill="#FF0000"/>
<path d="M41.5609 18.0173C41.7176 18.3082 41.8071 18.4873 41.8742 18.6663C41.8891 18.7111 41.9115 18.7558 41.9414 18.8006C41.9637 18.8901 42.0757 19.1587 42.0757 19.1587L42.1428 19.3153L42.4114 19.9644C42.3218 20.0763 42.2323 20.1434 42.1428 20.2106C41.7623 19.763 41.2476 19.002 41.2476 17.9949C41.352 17.9949 41.4564 18.0023 41.5609 18.0173Z" fill="#FF0000"/>
<path d="M43.4199 19.8305C43.5542 19.7857 43.681 19.7335 43.8004 19.6738C43.7557 19.8081 43.6885 19.9424 43.6214 20.0543C43.4722 20.1438 43.3155 20.2184 43.1514 20.2781C43.2633 20.1438 43.3528 20.0095 43.4199 19.8305Z" fill="#FF0000"/>
<path d="M44.0012 19.5614C44.0907 19.5017 44.1728 19.442 44.2474 19.3823C44.1579 19.5465 44.0534 19.6882 43.9341 19.8076C43.9639 19.733 43.9863 19.6509 44.0012 19.5614Z" fill="#FF0000"/>
</g>
</g>
<defs>
<clipPath id="clip0_2582_100170">
<rect width="47.4946" height="47.4946" fill="white" transform="translate(0.498535 0.477783)"/>
</clipPath>
<clipPath id="clip1_2582_100170">
<rect width="47" height="47" fill="white" transform="translate(0.493164 -0.0222168)"/>
</clipPath>
</defs>
</svg>
