<svg width="138" height="35" viewBox="0 0 138 35" fill="none" xmlns="http://www.w3.org/2000/svg">
<g clip-path="url(#clip0_2582_110128)">
<path d="M11.5913 6.01623C11.2225 5.47094 10.8696 4.9417 10.4847 4.38038C10.7413 4.3483 10.9659 4.30019 11.1904 4.28415C11.2706 4.28415 11.3508 4.33226 11.4149 4.38038C11.7998 4.63698 12.1847 4.90962 12.5696 5.15019C12.6338 5.1983 12.746 5.23038 12.8262 5.21434C13.8687 4.90962 14.8951 4.6049 15.9375 4.30019C15.9536 4.30019 15.9696 4.28415 16.0017 4.25207C15.1517 2.90491 14.2857 1.5417 13.4196 0.162452C13.7725 0.0983014 14.0932 0.0341504 14.3979 0.00207494C14.4942 -0.0139628 14.6225 0.0662259 14.7026 0.130377C15.9375 1.18887 17.1564 2.23132 18.3753 3.28981C18.5196 3.41811 18.664 3.45019 18.8564 3.41811C19.8989 3.19358 20.9574 3.03321 22.0319 3.14547C22.6092 3.20962 23.1706 3.33792 23.78 3.61057C23.6357 3.72283 23.5234 3.80302 23.4111 3.89924C22.4649 4.71717 21.3423 5.16623 20.1394 5.47094C19.8508 5.55113 19.5621 5.61528 19.2574 5.6634C19.097 5.69547 19.0008 5.75962 18.9366 5.90396C18.2149 7.37943 17.4932 8.85491 16.7875 10.3304C16.7074 10.4908 16.6111 10.587 16.4347 10.6191C16.1781 10.6511 15.9375 10.7153 15.6328 10.7955C15.8894 9.20774 16.13 7.63604 16.3866 6.03226C15.8253 6.09641 15.3121 6.16057 14.7828 6.22472C14.2375 6.28887 13.7083 6.33698 13.163 6.41717C13.0668 6.43321 12.9385 6.49736 12.8743 6.57755C12.6659 6.86623 12.4894 7.18698 12.297 7.4917C12.0564 7.84453 11.7357 8.10113 11.2385 8.16528C11.3668 7.52377 11.4951 6.91434 11.6234 6.3049C7.83849 7.4917 3.47623 11.1643 2.61019 17.2426C1.74415 23.4653 5.17623 29.4634 10.9498 31.7889C14.414 33.1842 17.9102 33.1681 21.3583 31.6766C24.7904 30.1851 27.164 27.6511 28.6394 24.2191C28.6715 24.2351 28.6875 24.2511 28.7196 24.2832C28.7036 24.3634 28.6715 24.4436 28.6555 24.5238C27.0196 29.0785 23.9243 32.1738 19.3375 33.7455C17.1885 34.4832 14.9753 34.6275 12.714 34.3389C7.35736 33.6653 2.59415 29.8964 0.830001 24.8445C-1.63981 17.7558 1.56774 10.3785 8.25547 7.1549C9.26585 6.67377 10.3404 6.3049 11.447 6.06434C11.4791 6.06434 11.5272 6.0483 11.5913 6.01623Z" fill="#016FEB"/>
<path d="M17.3809 15.7991C17.3008 16.8897 17.2366 17.8359 17.1725 18.7661C17.1564 18.9425 17.0923 19.0227 16.9319 19.0708C15.3442 19.6001 13.7725 20.1293 12.2008 20.6586C11.9548 20.7441 11.7624 20.68 11.6234 20.4661C11.2064 19.8888 10.7734 19.3114 10.3725 18.734C9.98755 18.1727 9.60264 17.5954 9.21774 17.018C8.96113 16.6491 8.9451 16.2963 9.21774 15.8954C10.0196 14.7246 10.8696 13.602 11.864 12.5595C12.1526 12.2548 12.4574 12.1105 12.8904 12.2388C14.2215 12.6397 15.5526 13.0246 16.8838 13.4255C17.2687 13.5378 17.4291 13.7784 17.397 14.1954C17.3489 14.7888 17.3809 15.3661 17.3809 15.7991Z" fill="#016FEB"/>
<path d="M26.346 23.8342C26.2979 23.9625 26.2498 24.1549 26.1696 24.2993C25.464 25.5662 24.614 26.721 23.6036 27.7634C23.2989 28.0842 22.9621 28.1483 22.5451 28.036C21.7913 27.8276 21.0215 27.6351 20.2677 27.3945C19.8989 27.2823 19.8989 27.2342 19.979 26.8493C20.3319 25.3577 20.6687 23.8823 21.0215 22.3908C21.0375 22.2945 21.1338 22.1662 21.214 22.1181C22.4007 21.5408 23.5875 20.9794 24.7583 20.4181C25.1111 20.2417 25.1432 20.2417 25.3196 20.5945C25.8489 21.621 26.1857 22.6794 26.346 23.8342Z" fill="#016FEB"/>
<path d="M13.2753 31.2115C12.3611 31.0511 11.5111 30.7624 10.6772 30.4417C10.1479 30.2332 9.61869 29.9926 9.10548 29.736C8.86491 29.6077 8.65642 29.4152 8.49604 29.1907C7.95076 28.4369 7.54982 27.603 7.22906 26.7209C7.21303 26.6567 7.19699 26.6086 7.18095 26.5445C7.05265 26.0794 7.08472 26.0633 7.54982 25.9992C8.46397 25.8709 9.37812 25.7426 10.2762 25.5822C10.6772 25.502 10.9819 25.5983 11.3026 25.8549C12.2649 26.6354 13.2272 27.4052 14.1894 28.1643C14.3819 28.3247 14.6064 28.453 14.8309 28.6133C14.9913 28.7256 15.0555 28.8539 14.9432 29.0303C14.5423 29.6879 14.1413 30.3454 13.7083 30.9869C13.6281 31.1152 13.4196 31.1313 13.2753 31.2115Z" fill="#016FEB"/>
<path d="M20.412 9.01538C20.5724 9.03142 20.7007 9.03142 20.813 9.06349C21.7432 9.3201 22.5611 9.80123 23.2988 10.4267C24.4375 11.4371 25.4319 12.5597 26.1536 13.9229C26.3941 14.372 26.3781 14.4201 26.0092 14.789C25.8488 14.9493 25.6724 15.0776 25.512 15.222C25.3837 15.3342 25.2875 15.3342 25.1592 15.222C24.7743 14.8531 24.3894 14.4682 23.9724 14.1154C23.1385 13.4418 22.2885 12.7842 21.4545 12.1107C21.3743 12.0465 21.2781 11.9342 21.262 11.838C21.1017 10.9399 20.8611 10.0578 20.4922 9.22387C20.4441 9.17576 20.4281 9.12765 20.412 9.01538Z" fill="#016FEB"/>
<path d="M4.3583 22.1662C3.90924 22.0379 3.68471 21.7652 3.65264 21.3483C3.46018 19.0869 3.65264 16.8737 4.58283 14.7728C4.64698 14.6124 4.75924 14.4681 4.83943 14.3237C4.87151 14.3237 4.88754 14.3398 4.91962 14.3398C4.93566 14.5643 4.96773 14.7888 4.98377 15.0134C4.99981 15.7351 5.08 16.4407 5.30452 17.1143C5.3366 17.1945 5.3366 17.3067 5.30452 17.3869C4.93566 18.2209 4.82339 19.119 4.67905 20.0011C4.58283 20.6266 4.50264 21.252 4.42245 21.8935C4.40641 21.9737 4.37434 22.0539 4.3583 22.1662Z" fill="#016FEB"/>
<path d="M7.64606 10.5709C9.71493 9.11146 12.0244 8.2775 14.4942 7.84448C14.4942 7.86052 14.5102 7.8926 14.5262 7.90863C14.4781 7.92467 14.414 7.95675 14.3659 7.98882C13.2112 8.4058 12.1206 8.91901 11.1102 9.62467C10.9017 9.76901 10.613 9.81712 10.3564 9.86524C9.47436 10.0737 8.57625 10.2501 7.75832 10.6671C7.74228 10.6832 7.69417 10.6671 7.66209 10.6511C7.66209 10.619 7.64606 10.603 7.64606 10.5709Z" fill="#016FEB"/>
<path d="M32.697 21.4168L28.8158 13.3498C28.7677 13.2375 28.7196 13.0772 28.7196 12.8847C28.7196 12.2111 29.313 11.6819 30.0347 11.6819C30.7564 11.6819 31.1253 12.147 31.2375 12.4517L33.9158 18.6423L36.5941 12.4517C36.7064 12.163 37.0753 11.6819 37.797 11.6819C38.5187 11.6819 39.1121 12.2272 39.1121 12.8847C39.1121 13.0772 39.0639 13.2375 39.0158 13.3498L35.0866 21.4168C34.8781 21.8658 34.429 22.1545 33.8838 22.1545C33.3385 22.1545 32.8894 21.8498 32.697 21.4168Z" fill="#016FEB"/>
<path d="M40.1705 9.06759C40.1705 8.04117 40.7319 7.60815 41.7422 7.60815C42.7686 7.60815 43.33 8.05721 43.33 9.06759C43.33 9.93363 42.7686 10.4629 41.7422 10.4629C40.7319 10.4789 40.1705 9.93363 40.1705 9.06759ZM43.0252 20.9516C43.0252 21.6251 42.4319 22.1544 41.7102 22.1544C40.9724 22.1544 40.3951 21.6091 40.3951 20.9516V12.8846C40.3951 12.211 40.9885 11.6817 41.7102 11.6817C42.4479 11.6817 43.0252 12.227 43.0252 12.8846V20.9516Z" fill="#016FEB"/>
<path d="M47.6281 14.4084C47.6281 16.0442 53.5781 15.3065 53.5781 18.9791C53.5781 21.0801 51.6375 22.1546 49.1517 22.1546C47.0828 22.1546 45.463 21.2886 44.8696 20.5989C44.6772 20.3744 44.5809 20.1659 44.5809 19.9093C44.5809 19.332 45.1262 18.8348 45.7356 18.8348C45.9762 18.8348 46.2168 18.8989 46.4894 19.1074C47.147 19.6046 47.9328 20.0216 49.1677 20.0216C50.2583 20.0216 50.9479 19.7489 50.9479 19.1235C50.9479 17.3272 45.0139 18.2574 45.0139 14.4725C45.0139 12.4678 46.8423 11.4895 49.0715 11.4895C50.7875 11.4895 52.3111 12.0989 53.0007 12.8687C53.129 13.0452 53.2413 13.2055 53.2413 13.5423C53.2413 14.1197 52.696 14.6169 52.0866 14.6169C51.7498 14.6169 51.5253 14.4886 51.2526 14.2961C50.7073 13.9433 50.0658 13.5744 49.0715 13.5744C48.1413 13.5744 47.6281 13.8631 47.6281 14.4084Z" fill="#016FEB"/>
<path d="M54.8611 9.06759C54.8611 8.04117 55.4225 7.60815 56.4328 7.60815C57.4593 7.60815 58.0206 8.05721 58.0206 9.06759C58.0206 9.93363 57.4593 10.4629 56.4328 10.4629C55.4225 10.4789 54.8611 9.93363 54.8611 9.06759ZM57.7319 20.9516C57.7319 21.6251 57.1385 22.1544 56.4168 22.1544C55.6951 22.1544 55.1017 21.6091 55.1017 20.9516V12.8846C55.1017 12.211 55.6951 11.6817 56.4168 11.6817C57.1385 11.6817 57.7319 12.227 57.7319 12.8846V20.9516Z" fill="#016FEB"/>
<path d="M60.7951 9.98179C60.7951 9.32424 61.3885 8.81104 62.0781 8.81104C62.7998 8.81104 63.3611 9.35632 63.3611 9.98179V11.8582H64.4517C65.0611 11.8582 65.5423 12.3073 65.5423 12.8686C65.5423 13.4299 65.0611 13.879 64.4517 13.879H63.3611V19.2837C63.3611 19.7969 63.8423 20.0856 64.2753 20.0856C64.9008 20.0856 65.414 20.5507 65.414 21.1441C65.414 21.7214 64.9008 22.2025 64.2753 22.2025C62.1102 22.2025 60.763 20.9356 60.763 19.1714V13.911H60.2017C59.5923 13.911 59.1111 13.462 59.1111 12.9007C59.1111 12.3393 59.5923 11.8903 60.2017 11.8903H60.763V9.98179H60.7951Z" fill="#016FEB"/>
<path d="M67.6913 13.863C67.0818 13.863 66.6007 13.4139 66.6007 12.8526C66.6007 12.2913 67.0818 11.8422 67.6913 11.8422H68.2045V10.6394C68.2045 8.57051 69.696 6.69409 72.8394 6.69409C73.4649 6.69409 73.9781 7.15919 73.9781 7.75258C73.9781 8.34598 73.4649 8.81107 72.8394 8.81107C71.5083 8.81107 70.8347 9.5007 70.8347 10.479V11.8582H72.4545C73.0639 11.8582 73.545 12.3073 73.545 12.8686C73.545 13.4299 73.0639 13.879 72.4545 13.879H70.8186V21.0158C70.8186 21.6894 70.2252 22.1705 69.5035 22.1705C68.7177 22.1705 68.1884 21.6733 68.1884 21.0158V13.879H67.6913V13.863Z" fill="#016FEB"/>
<path fill-rule="evenodd" clip-rule="evenodd" d="M79.1583 22.1545C75.8866 22.1545 73.8658 20.4385 73.8658 16.7979C73.8658 13.1574 75.9026 11.4253 79.1583 11.4253C82.43 11.4253 84.4508 13.1413 84.4508 16.7979C84.4828 20.4385 82.43 22.1545 79.1583 22.1545ZM79.1583 13.4781C77.4102 13.4781 76.48 14.6008 76.48 16.814C76.48 18.9951 77.3941 20.1177 79.1583 20.1177C80.9064 20.1177 81.8366 18.9951 81.8366 16.814C81.8206 14.5847 80.9064 13.4781 79.1583 13.4781Z" fill="#016FEB"/>
<path fill-rule="evenodd" clip-rule="evenodd" d="M91.1706 22.1545C87.8989 22.1545 85.8781 20.4385 85.8781 16.7979C85.8781 13.1574 87.9149 11.4253 91.1706 11.4253C94.4423 11.4253 96.463 13.1413 96.463 16.7979C96.4951 20.4385 94.4423 22.1545 91.1706 22.1545ZM91.1706 13.4781C89.4225 13.4781 88.4923 14.6008 88.4923 16.814C88.4923 18.9951 89.4064 20.1177 91.1706 20.1177C92.9187 20.1177 93.8489 18.9951 93.8489 16.814C93.8328 14.5847 92.9187 13.4781 91.1706 13.4781Z" fill="#016FEB"/>
<path d="M98.3234 9.98179C98.3234 9.32424 98.9168 8.81104 99.6064 8.81104C100.296 8.81104 100.889 9.35632 100.889 9.98179V11.8582H101.98C102.589 11.8582 103.071 12.3073 103.071 12.8686C103.071 13.4299 102.589 13.879 101.98 13.879H100.889V19.2837C100.889 19.7969 101.371 20.0856 101.804 20.0856C102.429 20.0856 102.942 20.5507 102.942 21.1441C102.942 21.7214 102.429 22.2025 101.804 22.2025C99.6385 22.2025 98.2913 20.9356 98.2913 19.1714V13.911H97.73C97.1205 13.911 96.6394 13.462 96.6394 12.9007C96.6394 12.3393 97.1205 11.8903 97.73 11.8903H98.2913L98.3234 9.98179Z" fill="#016FEB"/>
<path fill-rule="evenodd" clip-rule="evenodd" d="M114.714 16.798C114.714 20.4225 112.789 22.1546 109.534 22.1546C106.599 22.1546 104.514 20.6631 104.514 17.6961V7.19136C104.514 6.51777 105.107 5.98853 105.829 5.98853C106.551 5.98853 107.144 6.53381 107.144 7.19136V12.3234C107.625 11.8744 108.636 11.4253 109.822 11.4253C112.837 11.4414 114.714 13.1734 114.714 16.798ZM107.128 17.6961C107.128 19.2197 108.122 20.1017 109.518 20.1017C111.186 20.1017 112.116 18.9791 112.116 16.798C112.116 14.6008 111.186 13.4621 109.518 13.4621C108.074 13.4621 107.128 14.6008 107.128 14.6008V17.6961Z" fill="#016FEB"/>
<path fill-rule="evenodd" clip-rule="evenodd" d="M118.483 14.4082C118.242 14.5686 118.05 14.6328 117.745 14.6328C117.12 14.6328 116.606 14.1677 116.606 13.5743C116.606 13.3337 116.703 13.0611 116.911 12.8365C117.585 12.1469 118.804 11.4092 120.872 11.4092C123.871 11.4092 125.668 12.7564 125.668 15.1299V20.8394C125.668 21.4969 125.074 22.0101 124.385 22.0101C123.695 22.0101 123.102 21.4648 123.102 20.8394C122.444 21.8016 121.386 22.1224 119.942 22.1224C117.569 22.1224 115.997 20.7752 115.997 18.7545C115.997 16.6856 117.825 15.6111 119.926 15.6111H123.086V15.2101C123.086 14.1997 122.284 13.5422 120.888 13.5422C119.846 13.5743 119.076 14.0233 118.483 14.4082ZM123.102 18.145V17.5196H120.263C119.188 17.5196 118.611 17.9847 118.611 18.7865C118.611 19.6365 119.269 20.1337 120.616 20.1337C121.915 20.1497 123.102 19.3799 123.102 18.145Z" fill="#016FEB"/>
<path d="M130.062 7.30342V19.5242C130.062 19.7968 130.351 19.9251 130.527 19.9251C131.201 19.9251 131.73 20.4223 131.73 21.0478C131.73 21.6732 131.185 22.1704 130.527 22.1704C128.635 22.1704 127.448 21.1761 127.448 19.3157V7.30342C127.448 6.62983 128.041 6.10059 128.763 6.10059C129.485 6.10059 130.062 6.64587 130.062 7.30342Z" fill="#016FEB"/>
<path d="M135.547 7.30342V19.5242C135.547 19.7968 135.836 19.9251 136.012 19.9251C136.686 19.9251 137.215 20.4223 137.215 21.0478C137.215 21.6732 136.67 22.1704 136.012 22.1704C134.12 22.1704 132.933 21.1761 132.933 19.3157V7.30342C132.933 6.62983 133.526 6.10059 134.248 6.10059C134.954 6.10059 135.547 6.64587 135.547 7.30342Z" fill="#016FEB"/>
<path d="M119.06 23.1487C120.183 23.1487 120.808 23.6779 120.985 23.9185C121.033 23.9987 121.081 24.0468 121.081 24.1109C121.081 24.2874 120.921 24.4317 120.712 24.4317C120.584 24.4317 120.504 24.3836 120.423 24.3034C120.231 24.127 119.878 23.7742 119.044 23.7742C117.889 23.7742 117.264 24.4317 117.264 25.7789C117.264 27.1421 117.873 27.8157 119.044 27.8157C119.782 27.8157 120.199 27.5109 120.52 27.3345C120.616 27.2864 120.664 27.2543 120.744 27.2543C120.953 27.2543 121.113 27.3987 121.113 27.5751C121.113 27.6713 121.081 27.7515 120.953 27.8638C120.68 28.0402 120.055 28.4572 119.06 28.4572C117.44 28.4572 116.478 27.6072 116.478 25.7949C116.462 23.9826 117.456 23.1487 119.06 23.1487Z" fill="#016FEB"/>
<path fill-rule="evenodd" clip-rule="evenodd" d="M127.32 25.779C127.32 27.6073 126.309 28.4412 124.689 28.4412C123.07 28.4412 122.059 27.5912 122.059 25.779C122.059 23.9667 123.07 23.1167 124.689 23.1167C126.309 23.1167 127.32 23.9827 127.32 25.779ZM126.502 25.779C126.502 24.3837 125.844 23.7742 124.689 23.7742C123.535 23.7742 122.877 24.3837 122.877 25.779C122.877 27.1903 123.535 27.8158 124.689 27.8158C125.828 27.8158 126.502 27.2063 126.502 25.779Z" fill="#016FEB"/>
<path d="M137.215 25.1374V28.1044C137.215 28.2808 137.054 28.4572 136.814 28.4572C136.605 28.4572 136.413 28.3129 136.413 28.1044V25.2818C136.413 24.3836 136.06 23.8063 134.857 23.8063C133.783 23.8063 133.302 24.3195 133.302 25.1374V28.1044C133.302 28.2808 133.141 28.4572 132.901 28.4572C132.692 28.4572 132.5 28.3129 132.5 28.1044V25.2978C132.5 24.3997 132.179 23.8223 130.96 23.8223C129.805 23.8223 129.421 24.4318 129.421 25.378V28.1365C129.421 28.3129 129.26 28.4893 129.02 28.4893C128.811 28.4893 128.619 28.345 128.619 28.1365V23.6619C128.619 23.4855 128.779 23.3091 129.02 23.3091C129.228 23.3091 129.421 23.4535 129.421 23.6619V24.0148C129.629 23.5978 130.238 23.2289 131.056 23.2289C132.099 23.2289 132.756 23.5497 133.045 24.0148C133.366 23.5818 133.911 23.2289 134.889 23.2289C136.782 23.1808 137.215 24.2072 137.215 25.1374Z" fill="#016FEB"/>
<path d="M114.185 24.0147C114.185 23.3893 114.521 23.1006 115.099 23.1006C115.66 23.1006 116.013 23.3893 116.013 24.0147C116.013 24.6402 115.676 24.9289 115.099 24.9289C114.521 24.9289 114.185 24.6723 114.185 24.0147Z" fill="#016FEB"/>
</g>
<defs>
<clipPath id="clip0_2582_110128">
<rect width="137.215" height="34.4778" fill="white"/>
</clipPath>
</defs>
</svg>
