<svg width="29" height="36" viewBox="0 0 29 36" fill="none" xmlns="http://www.w3.org/2000/svg">
<g clip-path="url(#clip0_3521_50084)">
<path d="M11.5913 6.75524C11.2225 6.20996 10.8696 5.68071 10.4847 5.11939C10.7413 5.08731 10.9659 5.0392 11.1904 5.02316C11.2706 5.02316 11.3508 5.07128 11.4149 5.11939C11.7998 5.37599 12.1847 5.64864 12.5696 5.8892C12.6338 5.93731 12.746 5.96939 12.8262 5.95335C13.8687 5.64864 14.8951 5.34392 15.9375 5.0392C15.9536 5.0392 15.9696 5.02316 16.0017 4.99109C15.1517 3.64392 14.2857 2.28071 13.4196 0.901466C13.7725 0.837315 14.0932 0.773164 14.3979 0.741089C14.4942 0.725051 14.6225 0.80524 14.7026 0.86939C15.9375 1.92788 17.1564 2.97033 18.3753 4.02882C18.5196 4.15713 18.664 4.1892 18.8564 4.15713C19.8989 3.9326 20.9574 3.77222 22.0319 3.88448C22.6092 3.94864 23.1706 4.07694 23.78 4.34958C23.6357 4.46184 23.5234 4.54203 23.4111 4.63826C22.4649 5.45618 21.3423 5.90524 20.1394 6.20996C19.8508 6.29014 19.5621 6.3543 19.2574 6.40241C19.097 6.43448 19.0008 6.49864 18.9366 6.64298C18.2149 8.11845 17.4932 9.59392 16.7875 11.0694C16.7074 11.2298 16.6111 11.326 16.4347 11.3581C16.1781 11.3901 15.9375 11.4543 15.6328 11.5345C15.8894 9.94675 16.13 8.37505 16.3866 6.77128C15.8253 6.83543 15.3121 6.89958 14.7828 6.96373C14.2375 7.02788 13.7083 7.07599 13.163 7.15618C13.0668 7.17222 12.9385 7.23637 12.8743 7.31656C12.6659 7.60524 12.4894 7.92599 12.297 8.23071C12.0564 8.58354 11.7357 8.84015 11.2385 8.9043C11.3668 8.26279 11.4951 7.65335 11.6234 7.04392C7.83849 8.23071 3.47623 11.9034 2.61019 17.9817C1.74415 24.2043 5.17623 30.2024 10.9498 32.5279C14.414 33.9232 17.9102 33.9071 21.3583 32.4156C24.7904 30.9241 27.164 28.3901 28.6394 24.9581C28.6715 24.9741 28.6875 24.9901 28.7196 25.0222C28.7036 25.1024 28.6715 25.1826 28.6555 25.2628C27.0196 29.8175 23.9243 32.9128 19.3375 34.4845C17.1885 35.2222 14.9753 35.3666 12.714 35.0779C7.35736 34.4043 2.59415 30.6354 0.830001 25.5835C-1.63981 18.4949 1.56774 11.1175 8.25547 7.89392C9.26585 7.41279 10.3404 7.04392 11.447 6.80335C11.4791 6.80335 11.5272 6.78731 11.5913 6.75524Z" fill="#016FEB"/>
<path d="M17.3809 16.5381C17.3008 17.6287 17.2366 18.5749 17.1725 19.5051C17.1564 19.6815 17.0923 19.7617 16.9319 19.8098C15.3442 20.3391 13.7725 20.8683 12.2008 21.3976C11.9548 21.4831 11.7624 21.419 11.6234 21.2051C11.2064 20.6278 10.7734 20.0504 10.3725 19.4731C9.98755 18.9117 9.60264 18.3344 9.21774 17.757C8.96113 17.3881 8.9451 17.0353 9.21774 16.6344C10.0196 15.4636 10.8696 14.341 11.864 13.2985C12.1526 12.9938 12.4574 12.8495 12.8904 12.9778C14.2215 13.3787 15.5526 13.7636 16.8838 14.1646C17.2687 14.2768 17.4291 14.5174 17.397 14.9344C17.3489 15.5278 17.3809 16.1051 17.3809 16.5381Z" fill="#016FEB"/>
<path d="M26.346 24.5732C26.2979 24.7015 26.2498 24.8939 26.1696 25.0383C25.464 26.3053 24.614 27.46 23.6036 28.5024C23.2989 28.8232 22.9621 28.8873 22.5451 28.7751C21.7913 28.5666 21.0215 28.3741 20.2677 28.1336C19.8989 28.0213 19.8989 27.9732 19.979 27.5883C20.3319 26.0968 20.6687 24.6213 21.0215 23.1298C21.0375 23.0336 21.1338 22.9053 21.214 22.8571C22.4007 22.2798 23.5875 21.7185 24.7583 21.1571C25.1111 20.9807 25.1432 20.9807 25.3196 21.3336C25.8489 22.36 26.1857 23.4185 26.346 24.5732Z" fill="#016FEB"/>
<path d="M13.2753 31.9505C12.3611 31.7901 11.5111 31.5014 10.6772 31.1807C10.1479 30.9722 9.61869 30.7316 9.10548 30.475C8.86491 30.3467 8.65642 30.1542 8.49604 29.9297C7.95076 29.1759 7.54982 28.342 7.22906 27.4599C7.21303 27.3958 7.19699 27.3476 7.18095 27.2835C7.05265 26.8184 7.08472 26.8024 7.54982 26.7382C8.46397 26.6099 9.37812 26.4816 10.2762 26.3212C10.6772 26.241 10.9819 26.3373 11.3026 26.5939C12.2649 27.3744 13.2272 28.1442 14.1894 28.9033C14.3819 29.0637 14.6064 29.192 14.8309 29.3524C14.9913 29.4646 15.0555 29.5929 14.9432 29.7693C14.5423 30.4269 14.1413 31.0844 13.7083 31.7259C13.6281 31.8542 13.4196 31.8703 13.2753 31.9505Z" fill="#016FEB"/>
<path d="M20.412 9.75439C20.5724 9.77043 20.7007 9.77043 20.813 9.80251C21.7432 10.0591 22.5611 10.5402 23.2988 11.1657C24.4375 12.1761 25.4319 13.2987 26.1536 14.6619C26.3941 15.111 26.3781 15.1591 26.0092 15.528C25.8488 15.6884 25.6724 15.8167 25.512 15.961C25.3837 16.0733 25.2875 16.0733 25.1592 15.961C24.7743 15.5921 24.3894 15.2072 23.9724 14.8544C23.1385 14.1808 22.2885 13.5233 21.4545 12.8497C21.3743 12.7855 21.2781 12.6733 21.262 12.577C21.1017 11.6789 20.8611 10.7968 20.4922 9.96288C20.4441 9.91477 20.4281 9.86666 20.412 9.75439Z" fill="#016FEB"/>
<path d="M4.3583 22.9052C3.90924 22.7769 3.68471 22.5043 3.65264 22.0873C3.46018 19.826 3.65264 17.6127 4.58283 15.5118C4.64698 15.3514 4.75924 15.2071 4.83943 15.0627C4.87151 15.0627 4.88754 15.0788 4.91962 15.0788C4.93566 15.3033 4.96773 15.5278 4.98377 15.7524C4.99981 16.4741 5.08 17.1797 5.30452 17.8533C5.3366 17.9335 5.3366 18.0458 5.30452 18.126C4.93566 18.9599 4.82339 19.858 4.67905 20.7401C4.58283 21.3656 4.50264 21.991 4.42245 22.6326C4.40641 22.7127 4.37434 22.7929 4.3583 22.9052Z" fill="#016FEB"/>
<path d="M7.64606 11.3099C9.71493 9.85048 12.0244 9.01651 14.4942 8.5835C14.4942 8.59953 14.5102 8.63161 14.5262 8.64765C14.4781 8.66368 14.414 8.69576 14.3659 8.72784C13.2112 9.14482 12.1206 9.65802 11.1102 10.3637C10.9017 10.508 10.613 10.5561 10.3564 10.6043C9.47436 10.8127 8.57625 10.9892 7.75832 11.4061C7.74228 11.4222 7.69417 11.4061 7.66209 11.3901C7.66209 11.358 7.64606 11.342 7.64606 11.3099Z" fill="#016FEB"/>
</g>
<defs>
<clipPath id="clip0_3521_50084">
<rect width="28.7196" height="34.4778" fill="white" transform="translate(0 0.739014)"/>
</clipPath>
</defs>
</svg>
