<svg width="42" height="43" viewBox="0 0 42 43" fill="none" xmlns="http://www.w3.org/2000/svg">
<rect y="0.845459" width="41.275" height="41.2648" rx="20.6324" fill="#016FEB"/>
<path fill-rule="evenodd" clip-rule="evenodd" d="M14.0965 19.5148C15.898 23.4365 19.0988 26.5444 23.0719 28.2296L23.084 28.2346L23.8525 28.5766C24.3273 28.7883 24.8604 28.8302 25.3623 28.6952C25.8643 28.5602 26.3045 28.2565 26.6089 27.8352L27.8905 26.0617C27.9282 26.0094 27.9444 25.9447 27.9358 25.8809C27.9272 25.8171 27.8944 25.759 27.8443 25.7186L25.607 23.9129C25.5806 23.8916 25.5501 23.8759 25.5175 23.8666C25.4848 23.8574 25.4507 23.8549 25.417 23.8592C25.3834 23.8635 25.351 23.8746 25.3217 23.8918C25.2925 23.909 25.267 23.9319 25.2468 23.9592L24.3757 25.1342C24.273 25.2728 24.126 25.3721 23.959 25.4154C23.7921 25.4588 23.6153 25.4437 23.4582 25.3726C20.4816 24.0241 18.0968 21.6393 16.7483 18.6627C16.6772 18.5055 16.6621 18.3288 16.7054 18.1618C16.7488 17.9949 16.8481 17.8479 16.9867 17.7452L18.1607 16.873C18.188 16.8529 18.2109 16.8274 18.2281 16.7982C18.2453 16.7689 18.2563 16.7365 18.2607 16.7028C18.265 16.6692 18.2625 16.635 18.2532 16.6024C18.244 16.5697 18.2283 16.5393 18.207 16.5129L16.4023 14.2756C16.3619 14.2254 16.3038 14.1927 16.24 14.1841C16.1761 14.1755 16.1114 14.1917 16.0592 14.2293L14.2756 15.517C13.8515 15.8229 13.5464 16.2663 13.4121 16.7717C13.2779 17.2771 13.3228 17.8134 13.5392 18.2895L14.0965 19.5148ZM22.4764 29.6158C18.1598 27.7829 14.6826 24.4051 12.7254 20.1435L12.7234 20.1415L12.1661 18.9142C11.8053 18.1209 11.7304 17.2272 11.9539 16.3849C12.1775 15.5426 12.6857 14.8037 13.3924 14.2937L15.176 13.0061C15.5413 12.7424 15.9937 12.6288 16.4402 12.6887C16.8867 12.7486 17.2933 12.9774 17.5762 13.328L19.382 15.5663C19.531 15.7509 19.6411 15.9638 19.7058 16.1922C19.7704 16.4205 19.7883 16.6595 19.7582 16.8949C19.7281 17.1303 19.6508 17.3571 19.5308 17.5619C19.4108 17.7666 19.2507 17.945 19.0601 18.0863L18.386 18.5852C19.5256 20.7947 21.3252 22.5943 23.5347 23.7338L24.0346 23.0598C24.1759 22.8693 24.3542 22.7093 24.5589 22.5894C24.7635 22.4696 24.9903 22.3923 25.2255 22.3622C25.4608 22.3321 25.6997 22.3499 25.9279 22.4145C26.1561 22.479 26.369 22.5891 26.5536 22.7379L28.7919 24.5436C29.1428 24.8266 29.3717 25.2334 29.4316 25.6801C29.4915 26.1268 29.3778 26.5795 29.1138 26.9449L27.8322 28.7195C27.3249 29.4216 26.5914 29.9277 25.755 30.1528C24.9185 30.378 24.0301 30.3084 23.2389 29.9558L22.4764 29.6158Z" fill="white"/>
</svg>
