<svg width="80" height="81" viewBox="0 0 80 81" fill="none" xmlns="http://www.w3.org/2000/svg">
<rect y="0.634521" width="80" height="80" rx="7.61905" fill="white"/>
<path d="M31.9414 24.8634L27.5985 16.5776C20.3985 20.3491 15.1414 27.3205 13.5985 35.5491L23.0271 37.2633C23.8842 31.8919 27.2557 27.3205 31.9414 24.8634Z" fill="#FFC808"/>
<path d="M22.857 39.9488C22.857 39.0345 22.9141 38.1774 23.0855 37.3202L13.657 35.606C13.3713 37.0917 13.257 38.6345 13.1998 40.1774C13.1998 42.3488 13.4284 44.4631 13.8855 46.5202L23.4284 44.3488C23.0284 42.9202 22.857 41.4345 22.857 39.9488Z" fill="#F58B1F"/>
<path d="M23.3718 44.2915L13.829 46.4629C14.5147 49.3772 15.6576 52.1201 17.2004 54.6344L25.6576 49.3772C24.629 47.8344 23.8861 46.1201 23.3718 44.2915Z" fill="#F99D1C"/>
<path d="M25.6569 49.3774L17.1998 54.6346C18.4569 56.6346 19.9427 58.4632 21.6569 60.1203C17.0284 61.5489 12.3427 62.2346 12.3427 62.2346C12.5141 62.406 17.7712 66.006 26.0569 67.7203L32.3998 55.3774C29.7141 53.9489 27.3712 51.8917 25.6569 49.3774Z" fill="#EF3B24"/>
<path d="M39.8856 56.9775C37.1999 56.9775 34.6856 56.3489 32.457 55.2632L26.1141 67.6632C30.1141 68.5203 34.857 68.8632 40.1141 68.2346V56.9775C39.9999 56.9775 39.9427 56.9775 39.8856 56.9775Z" fill="#F26922"/>
<path d="M40.0555 56.9776V68.2348C42.5127 67.9491 45.027 67.3776 47.6555 66.5776C49.9984 65.8919 52.1698 64.8633 54.1698 63.6062L48.627 54.5776C46.1698 56.0634 43.2555 56.9776 40.0555 56.9776Z" fill="#7FC042"/>
<path d="M56.915 39.9485C56.915 46.12 53.6007 51.5485 48.6864 54.52L54.2293 63.5485C58.0578 61.1485 61.2578 57.7771 63.4864 53.7771C65.6578 49.8914 66.915 45.4342 66.9721 40.7485C66.9721 38.6914 66.8007 36.6914 66.4007 34.7485L56.6293 36.8628C56.8007 37.8914 56.915 38.92 56.915 39.9485Z" fill="#C6D22D"/>
<path d="M40.3985 13.5485C35.7699 13.4914 31.4271 14.5771 27.5985 16.5771L31.9414 24.8628C34.2842 23.6057 37.0271 22.92 39.8842 22.92C48.2271 22.92 55.1985 28.92 56.6271 36.8628L66.3985 34.7485C63.8271 22.7485 53.1985 13.72 40.3985 13.5485Z" fill="#E9E015"/>
<path d="M30.1858 39.0496C30.1858 38.3242 30.3491 37.69 30.6757 37.1468C31.0023 36.6036 31.4492 36.1825 32.0164 35.8834C32.5871 35.5809 33.2403 35.4296 33.9759 35.4296C34.6772 35.4296 35.3201 35.5706 35.9045 35.8525C36.4924 36.1309 36.9616 36.5366 37.3123 37.0694C37.6663 37.6023 37.8434 38.2469 37.8434 39.0032C37.84 39.3745 37.7884 39.744 37.6887 40.1118C37.589 40.4797 37.4395 40.8596 37.2401 41.2515C37.0407 41.6434 36.7897 42.0645 36.4872 42.5148L34.043 46.1348H31.7998L34.3575 42.3704C34.2269 42.4048 34.0911 42.434 33.9502 42.4581C33.8126 42.4787 33.6717 42.489 33.5273 42.489C32.8741 42.489 32.2966 42.3429 31.7947 42.0507C31.2928 41.7585 30.8992 41.3546 30.6138 40.8389C30.3285 40.3233 30.1858 39.7268 30.1858 39.0496ZM32.331 38.9722C32.331 39.3263 32.4015 39.6392 32.5424 39.9107C32.6833 40.1789 32.8776 40.3903 33.1251 40.545C33.3761 40.6963 33.6631 40.7719 33.9862 40.7719C34.3128 40.7719 34.6016 40.6963 34.8526 40.545C35.1035 40.3903 35.2995 40.1789 35.4404 39.9107C35.5848 39.6426 35.657 39.3332 35.657 38.9825C35.657 38.6285 35.5865 38.3156 35.4456 38.044C35.3046 37.7725 35.107 37.5593 34.8526 37.4046C34.6016 37.2499 34.3146 37.1726 33.9914 37.1726C33.6648 37.1726 33.3761 37.2499 33.1251 37.4046C32.8776 37.5593 32.6833 37.7725 32.5424 38.044C32.4015 38.3156 32.331 38.625 32.331 38.9722ZM39.1568 46.2688C38.8164 46.2688 38.5242 46.1485 38.2801 45.9079C38.0395 45.6638 37.9192 45.3716 37.9192 45.0313C37.9192 44.6944 38.0395 44.4056 38.2801 44.1649C38.5242 43.9243 38.8164 43.804 39.1568 43.804C39.4868 43.804 39.7755 43.9243 40.0231 44.1649C40.2706 44.4056 40.3943 44.6944 40.3943 45.0313C40.3943 45.2581 40.3359 45.4661 40.219 45.6552C40.1056 45.8408 39.956 45.9904 39.7704 46.1038C39.5847 46.2138 39.3802 46.2688 39.1568 46.2688ZM41.4395 43.1491H43.693C43.7136 43.4138 43.803 43.6441 43.9611 43.8401C44.1227 44.0326 44.3341 44.1804 44.5954 44.2835C44.8567 44.3867 45.1454 44.4382 45.4617 44.4382C45.8055 44.4382 46.1063 44.3798 46.3641 44.2629C46.6254 44.146 46.8299 43.9776 46.9777 43.7576C47.1256 43.5376 47.1995 43.278 47.1995 42.9789C47.1995 42.6867 47.1256 42.4272 46.9777 42.2003C46.8299 41.9699 46.6082 41.7895 46.3125 41.6588C46.0169 41.5248 45.6508 41.4577 45.2142 41.4577H44.0746V39.9056L46.4157 37.4717V37.3995H41.9707V35.574H49.159V37.1829L46.3229 40.05V40.1325C46.8798 40.1875 47.3593 40.3078 47.7616 40.4934C48.1672 40.6791 48.4989 40.9111 48.7568 41.1896C49.0146 41.4646 49.2071 41.7688 49.3343 42.1023C49.4615 42.4358 49.5251 42.7778 49.5251 43.1285C49.5251 43.7507 49.3463 44.299 48.9888 44.7734C48.6347 45.2478 48.1517 45.6174 47.5398 45.8821C46.9279 46.1468 46.2335 46.2792 45.4565 46.2792C44.6831 46.2792 43.9972 46.1485 43.3991 45.8872C42.8043 45.626 42.3334 45.2616 41.9861 44.794C41.6424 44.3231 41.4602 43.7748 41.4395 43.1491Z" fill="#4B5563"/>
</svg>
