<svg width="58" height="59" viewBox="0 0 58 59" fill="none" xmlns="http://www.w3.org/2000/svg">
<path d="M20.9414 13.7066L16.5985 5.4209C9.39851 9.19233 4.14137 16.1638 2.59851 24.3923L12.0271 26.1066C12.8842 20.7352 16.2557 16.1638 20.9414 13.7066Z" fill="#FFC808"/>
<path d="M11.857 28.7918C11.857 27.8775 11.9141 27.0204 12.0855 26.1633L2.65697 24.449C2.37126 25.9347 2.25697 27.4775 2.19983 29.0204C2.19983 31.1918 2.4284 33.3061 2.88554 35.3633L12.4284 33.1918C12.0284 31.7633 11.857 30.2775 11.857 28.7918Z" fill="#F58B1F"/>
<path d="M12.3718 33.1348L2.82898 35.3062C3.51469 38.2205 4.65755 40.9633 6.20041 43.4776L14.6576 38.2205C13.629 36.6776 12.8861 34.9633 12.3718 33.1348Z" fill="#F99D1C"/>
<path d="M14.6569 38.2207L6.19979 43.4778C7.45694 45.4778 8.94265 47.3064 10.6569 48.9636C6.02837 50.3921 1.34265 51.0778 1.34265 51.0778C1.51408 51.2493 6.77122 54.8493 15.0569 56.5636L21.3998 44.2207C18.7141 42.7921 16.3712 40.735 14.6569 38.2207Z" fill="#EF3B24"/>
<path d="M28.8856 45.8207C26.1999 45.8207 23.6856 45.1922 21.457 44.1064L15.1141 56.5064C19.1141 57.3636 23.857 57.7064 29.1141 57.0779V45.8207C28.9999 45.8207 28.9427 45.8207 28.8856 45.8207Z" fill="#F26922"/>
<path d="M29.0555 45.8209V57.078C31.5127 56.7923 34.027 56.2209 36.6555 55.4209C38.9984 54.7352 41.1698 53.7066 43.1698 52.4495L37.627 43.4209C35.1698 44.9066 32.2555 45.8209 29.0555 45.8209Z" fill="#7FC042"/>
<path d="M45.915 28.7918C45.915 34.9632 42.6007 40.3918 37.6864 43.3632L43.2293 52.3918C47.0578 49.9918 50.2578 46.6204 52.4864 42.6204C54.6578 38.7347 55.915 34.2775 55.9721 29.5918C55.9721 27.5347 55.8007 25.5347 55.4007 23.5918L45.6293 25.7061C45.8007 26.7347 45.915 27.7632 45.915 28.7918Z" fill="#C6D22D"/>
<path d="M29.3985 2.39179C24.7699 2.33465 20.4271 3.42037 16.5985 5.42037L20.9414 13.7061C23.2842 12.4489 26.0271 11.7632 28.8842 11.7632C37.2271 11.7632 44.1985 17.7632 45.6271 25.7061L55.3985 23.5918C52.8271 11.5918 42.1985 2.56322 29.3985 2.39179Z" fill="#E9E015"/>
</svg>
