<svg width="12" height="10" viewBox="0 0 12 10" fill="none" xmlns="http://www.w3.org/2000/svg">
<path fill-rule="evenodd" clip-rule="evenodd" d="M0.399902 4.97769C0.399902 4.81856 0.463116 4.66595 0.575638 4.55343C0.68816 4.44091 0.840772 4.37769 0.999902 4.37769H9.5103L6.1839 1.20969C6.12443 1.15574 6.07639 1.0904 6.04262 1.01755C6.00886 0.944689 5.99007 0.865797 5.98736 0.785544C5.98465 0.705291 5.99807 0.625311 6.02684 0.550341C6.0556 0.475372 6.09913 0.406939 6.15482 0.349098C6.21052 0.291257 6.27727 0.245185 6.3511 0.213612C6.42493 0.182038 6.50434 0.165606 6.58464 0.165288C6.66494 0.16497 6.74449 0.180774 6.81856 0.211762C6.89264 0.24275 6.95975 0.288293 7.0159 0.345691L11.4159 4.54569C11.474 4.60166 11.5202 4.66876 11.5517 4.74299C11.5833 4.81721 11.5995 4.89704 11.5995 4.97769C11.5995 5.05834 11.5833 5.13817 11.5517 5.21239C11.5202 5.28662 11.474 5.35372 11.4159 5.40969L7.0159 9.60969C6.95975 9.66709 6.89264 9.71263 6.81856 9.74362C6.74449 9.77461 6.66494 9.79041 6.58464 9.7901C6.50434 9.78978 6.42493 9.77334 6.3511 9.74177C6.27727 9.7102 6.21052 9.66413 6.15482 9.60629C6.09913 9.54844 6.0556 9.48001 6.02684 9.40504C5.99807 9.33007 5.98465 9.25009 5.98736 9.16984C5.99007 9.08959 6.00886 9.01069 6.04262 8.93784C6.07639 8.86498 6.12443 8.79964 6.1839 8.74569L9.5103 5.57769H0.999902C0.840772 5.57769 0.68816 5.51448 0.575638 5.40196C0.463116 5.28943 0.399902 5.13682 0.399902 4.97769Z" fill="#016FEB"/>
</svg>
