<svg width="12" height="11" viewBox="0 0 12 11" fill="none" xmlns="http://www.w3.org/2000/svg">
<path fill-rule="evenodd" clip-rule="evenodd" d="M0.399902 5.47769C0.399902 5.31856 0.463116 5.16595 0.575638 5.05343C0.68816 4.94091 0.840772 4.87769 0.999902 4.87769H9.5103L6.1839 1.70969C6.12443 1.65574 6.07639 1.5904 6.04262 1.51755C6.00886 1.44469 5.99007 1.3658 5.98736 1.28554C5.98465 1.20529 5.99807 1.12531 6.02684 1.05034C6.0556 0.975372 6.09913 0.906939 6.15482 0.849098C6.21052 0.791257 6.27727 0.745185 6.3511 0.713612C6.42493 0.682038 6.50434 0.665606 6.58464 0.665288C6.66494 0.66497 6.74449 0.680774 6.81856 0.711762C6.89264 0.74275 6.95975 0.788293 7.0159 0.845691L11.4159 5.04569C11.474 5.10166 11.5202 5.16876 11.5517 5.24299C11.5833 5.31721 11.5995 5.39704 11.5995 5.47769C11.5995 5.55834 11.5833 5.63817 11.5517 5.71239C11.5202 5.78662 11.474 5.85372 11.4159 5.90969L7.0159 10.1097C6.95975 10.1671 6.89264 10.2126 6.81856 10.2436C6.74449 10.2746 6.66494 10.2904 6.58464 10.2901C6.50434 10.2898 6.42493 10.2733 6.3511 10.2418C6.27727 10.2102 6.21052 10.1641 6.15482 10.1063C6.09913 10.0484 6.0556 9.98001 6.02684 9.90504C5.99807 9.83007 5.98465 9.75009 5.98736 9.66984C5.99007 9.58959 6.00886 9.51069 6.04262 9.43784C6.07639 9.36498 6.12443 9.29964 6.1839 9.24569L9.5103 6.07769H0.999902C0.840772 6.07769 0.68816 6.01448 0.575638 5.90196C0.463116 5.78943 0.399902 5.63682 0.399902 5.47769Z" fill="white"/>
</svg>
