<svg width="43" height="43" viewBox="0 0 43 43" fill="none" xmlns="http://www.w3.org/2000/svg">
<rect x="0.102692" y="0.187988" width="42.4899" height="42.5798" rx="21.2449" fill="#016FEB"/>
<path d="M11.9304 30.94L13.2606 26.0804C12.4398 24.6579 12.0085 23.0454 12.0092 21.3918C12.0116 16.2223 16.2183 12.0156 21.387 12.0156C23.8953 12.0164 26.2498 12.9934 28.0208 14.766C29.791 16.5385 30.7656 18.8946 30.7648 21.4005C30.7625 26.5708 26.5557 30.7775 21.387 30.7775C19.8179 30.7767 18.2716 30.3833 16.902 29.6358L11.9304 30.94ZM17.1322 27.9381C18.4538 28.7227 19.7154 29.1926 21.3839 29.1934C25.6797 29.1934 29.1791 25.6971 29.1815 21.3989C29.1831 17.0921 25.7002 13.6005 21.3902 13.599C17.0912 13.599 13.5942 17.0952 13.5926 21.3926C13.5918 23.1471 14.1059 24.4607 14.9693 25.8351L14.1816 28.7116L17.1322 27.9381ZM26.111 23.6297C26.0527 23.5319 25.8966 23.4735 25.6616 23.356C25.4274 23.2385 24.2754 22.6716 24.0601 22.5935C23.8456 22.5155 23.6895 22.4761 23.5326 22.711C23.3765 22.9452 22.927 23.4735 22.7906 23.6297C22.6542 23.7858 22.517 23.8055 22.2828 23.688C22.0486 23.5705 21.2932 23.3237 20.3982 22.5249C19.702 21.9036 19.2312 21.1364 19.0948 20.9014C18.9584 20.6672 19.0806 20.5403 19.1973 20.4236C19.303 20.3187 19.4315 20.1499 19.549 20.0127C19.6681 19.8771 19.7067 19.7793 19.7856 19.6224C19.8636 19.4663 19.825 19.3291 19.7659 19.2116C19.7067 19.0949 19.2383 17.9413 19.0436 17.4721C18.8528 17.0156 18.6596 17.0771 18.5161 17.07L18.0666 17.0621C17.9105 17.0621 17.6566 17.1205 17.4421 17.3554C17.2276 17.5904 16.622 18.1566 16.622 19.3102C16.622 20.4638 17.4618 21.5779 17.5785 21.7341C17.696 21.8902 19.2305 24.2573 21.581 25.2721C22.1401 25.5134 22.5769 25.6577 22.9168 25.7657C23.4782 25.9439 23.9891 25.9187 24.3929 25.8588C24.8431 25.7918 25.7791 25.2918 25.9746 24.7446C26.1702 24.1966 26.1702 23.7274 26.111 23.6297Z" fill="white"/>
</svg>
